<?xml version="1.0" standalone="no"?>
<!DOCTYPE svg PUBLIC "-//W3C//DTD SVG 1.1//EN" "http://www.w3.org/Graphics/SVG/1.1/DTD/svg11.dtd" >
<svg xmlns="http://www.w3.org/2000/svg">
<metadata>Generated by IcoMoon</metadata>
<defs>
<font id="icomoon" horiz-adv-x="1024">
<font-face units-per-em="1024" ascent="960" descent="-64" />
<missing-glyph horiz-adv-x="1024" />
<glyph unicode="&#x20;" horiz-adv-x="512" d="" />
<glyph unicode="&#xe032;" glyph-name="pencil" d="M0-51.595c0-8.832 7.168-16 16-16h995.552c2.144 0 4.224 0.416 6.176 1.248s3.712 2.016 5.184 3.488c0.032 0.032 0.064 0.032 0.096 0.064 0.096 0.096 0.096 0.288 0.224 0.384 1.632 1.76 2.688 3.904 3.424 6.24 0.224 0.736 0.32 1.44 0.448 2.208 0.128 0.8 0.48 1.504 0.48 2.336 0 1.28-0.448 2.4-0.736 3.584-0.096 0.448 0.096 0.896-0.064 1.344l-101.12 310.88c-0.768 2.4-2.112 4.608-3.904 6.368l-547.744 547.776c-0.576 0.896-0.992 1.856-1.76 2.656l-119.648 119.648c-19.424 19.424-51.040 19.424-70.496 0l-167.52-167.52c-9.408-9.408-14.592-21.92-14.592-35.232s5.184-25.856 14.592-35.264l116.992-116.992c0.576-0.864 0.96-1.856 1.728-2.624l546.88-550.56c1.888-1.92 4.192-3.296 6.784-4.064l214.816-64h-885.792c-8.832 0.032-16-7.136-16-15.968zM203.584 630.581l501.984-495.552-18.464-64.064-519.84 523.296 36.32 36.32zM730.112 155.733l-503.936 497.44 77.984 77.984 499.424-500.736v-74.688h-73.472zM823.52 255.733l-496.736 498.048 33.248 33.248 518.752-518.752-55.264-12.544zM735.616 123.733h83.968c8.832 0 16 7.168 16 16v85.92l64.224 14.592 87.136-267.84-271.616 80.928 20.288 70.4zM32 737.877c0 4.768 1.856 9.216 5.216 12.608l167.52 167.52c6.944 6.944 18.24 6.976 25.248 0l107.904-107.904-192.736-192.736-107.904 107.904c-3.392 3.36-5.248 7.84-5.248 12.608z" />
<glyph unicode="&#xe0cd;" glyph-name="phone" d="M282 474.4c62-120 162-220 282-282l94 94c12 12 30 16 44 10 48-16 100-24 152-24 24 0 42-18 42-42v-150c0-24-18-42-42-42-400 0-726 326-726 726 0 24 18 42 42 42h150c24 0 42-18 42-42 0-54 8-104 24-152 4-14 2-32-10-44z" />
<glyph unicode="&#xe314;" glyph-name="section-prev" d="M658 252.667l-60-60-256 256 256 256 60-60-196-196z" />
<glyph unicode="&#xe3ba;" glyph-name="control_point" d="M512 80.4c188 0 342 154 342 342s-154 342-342 342-342-154-342-342 154-342 342-342zM512 848.4c236 0 426-190 426-426s-190-426-426-426-426 190-426 426 190 426 426 426zM554 636.4v-172h172v-84h-172v-172h-84v172h-172v84h172v172h84z" />
<glyph unicode="&#xe409;" glyph-name="section-next" d="M426 682.667l256-256-256-256-60 60 196 196-196 196z" />
<glyph unicode="&#xe429;" glyph-name="tune" d="M640 550.4v256h86v-86h170v-84h-170v-86h-86zM896 380.4h-426v84h426v-84zM298 550.4h86v-256h-86v86h-170v84h170v86zM554 38.4h-84v256h84v-86h342v-84h-342v-86zM128 720.4h426v-84h-426v84zM128 208.4h256v-84h-256v84z" />
<glyph unicode="&#xe5ca;" glyph-name="badge-selected" d="M384 248.667l452 452 60-60-512-512-238 238 60 60z" />
<glyph unicode="&#xe5cd;" glyph-name="close" d="M810 660.4l-238-238 238-238-60-60-238 238-238-238-60 60 238 238-238 238 60 60 238-238 238 238z" />
<glyph unicode="&#xe5d2;" glyph-name="menu" d="M128 682.667h768v-86h-768v86zM128 384.667v84h768v-84h-768zM128 170.667v86h768v-86h-768z" />
<glyph unicode="&#xe5d5;" glyph-name="refresh" d="M754 664.4l100 100v-300h-300l138 138c-46 46-110 76-180 76-142 0-256-114-256-256s114-256 256-256c112 0 208 70 242 170h88c-38-148-170-256-330-256-188 0-340 154-340 342s152 342 340 342c94 0 180-38 242-100z" />
<glyph unicode="&#xe5d7;" glyph-name="unfold_more" d="M512 158.4l136 136 60-60-196-196-196 196 60 60zM512 686.4l-136-136-60 60 196 196 196-196-60-60z" />
<glyph unicode="&#xe838;" glyph-name="star2" d="M512 198.4l-264-160 70 300-232 202 306 26 120 282 120-282 306-26-232-202 70-300z" />
<glyph unicode="&#xe839;" glyph-name="star_half" d="M512 276.4l160-96-42 182 142 124-188 16-72 172v-398zM938 540.4l-232-202 70-300-264 160-264-160 70 300-232 202 306 26 120 282 120-282z" />
<glyph unicode="&#xe83a;" glyph-name="star_border" d="M512 276.4l160-96-42 182 142 124-188 16-72 172-72-172-188-16 142-124-42-182zM938 540.4l-232-202 70-300-264 160-264-160 70 300-232 202 306 26 120 282 120-282z" />
<glyph unicode="&#xe853;" glyph-name="account_circle" d="M512 114.4c106 0 200 56 256 138-2 84-172 132-256 132-86 0-254-48-256-132 56-82 150-138 256-138zM512 720.4c-70 0-128-58-128-128s58-128 128-128 128 58 128 128-58 128-128 128zM512 848.4c236 0 426-190 426-426s-190-426-426-426-426 190-426 426 190 426 426 426z" />
<glyph unicode="&#xe88f;" glyph-name="info_outline" d="M470 550.4v86h84v-86h-84zM512 80.4c188 0 342 154 342 342s-154 342-342 342-342-154-342-342 154-342 342-342zM512 848.4c236 0 426-190 426-426s-190-426-426-426-426 190-426 426 190 426 426 426zM470 208.4v256h84v-256h-84z" />
<glyph unicode="&#xe900;" glyph-name="facebook" d="M870.4 917.333h-716.8c-56.32 0-102.4-46.080-102.4-102.4v-716.8c0-56.371 46.080-102.4 102.4-102.4h358.4v358.4h-102.4v126.72h102.4v104.96c0 110.797 62.054 188.621 192.819 188.621l92.314-0.102v-133.376h-61.286c-50.893 0-70.246-38.195-70.246-73.626v-86.528h131.482l-29.082-126.669h-102.4v-358.4h204.8c56.32 0 102.4 46.029 102.4 102.4v716.8c0 56.32-46.080 102.4-102.4 102.4z" />
<glyph unicode="&#xe901;" glyph-name="google" d="M101.837 682.376c0-76.493 25.549-131.686 75.878-164.096 41.267-26.624 89.088-30.618 113.971-30.618 6.042 0 10.906 0.307 14.285 0.512 0 0-7.885-51.405 30.208-102.195h-1.741c-65.997 0-281.242-13.773-281.242-190.822 0-180.019 197.683-189.184 237.363-189.184 3.123 0 4.966 0.102 4.966 0.102 0.41 0 3.226-0.102 8.090-0.102 25.446 0 91.238 3.174 152.32 32.922 79.258 38.4 119.45 105.421 119.45 198.912 0 90.317-61.235 144.077-105.933 183.398-27.29 24.013-50.893 44.698-50.893 64.819 0 20.48 17.254 35.891 39.014 55.398 35.277 31.488 68.557 76.39 68.557 161.28 0 74.598-9.677 124.723-69.325 156.518 6.195 3.174 28.211 5.478 39.066 7.014 32.307 4.403 79.565 9.421 79.565 35.789v5.069h-235.469c-2.355-0.102-238.131-8.806-238.131-224.717zM481.946 220.911c4.506-71.987-57.088-125.082-149.606-131.789-93.952-6.912-171.264 35.379-175.77 107.315-2.202 34.611 13.005 68.403 42.752 95.386 30.157 27.29 71.578 44.186 116.634 47.514 5.325 0.307 10.598 0.614 15.872 0.614 86.989-0.051 145.869-51.149 150.118-119.040zM420.454 731.682c23.091-81.306-11.776-166.195-67.379-181.914-6.4-1.792-12.954-2.662-19.661-2.662-50.893 0-101.325 51.507-120.064 122.522-10.445 39.731-9.574 74.65 2.406 108.134 11.725 33.024 32.922 55.194 59.546 62.72 6.4 1.792 13.005 2.714 19.712 2.714 61.44 0 100.966-25.498 125.44-111.514zM819.2 558.933v153.6h-102.4v-153.6h-153.6v-102.4h153.6v-153.6h102.4v153.6h153.6v102.4h-153.6z" />
<glyph unicode="&#xe902;" glyph-name="stopwatch" d="M377.651 623.189c-22.886-14.080 61.286-217.19 81.818-250.266 17.92-29.133 55.962-37.99 84.89-20.173 29.082 18.022 38.144 56.013 20.224 84.992-20.326 33.178-164.096 199.578-186.931 185.446zM360.499 845.551c47.514 16.538 98.406 25.702 151.501 25.702s103.987-9.165 151.501-25.702c16.845-5.837 39.168 5.888 29.286 31.283-7.219 18.432-14.182 36.454-16.998 43.776-6.707 17.357-30.72 31.693-41.165 34.048-39.526 8.909-80.486 13.875-122.624 13.875s-83.098-4.966-122.675-13.875c-10.445-2.355-34.406-16.691-41.114-34.048-2.816-7.322-9.83-25.344-16.998-43.776-9.882-25.395 12.442-37.171 29.286-31.283zM977.818 805.41c-9.83 11.776-20.275 23.296-31.386 34.406-11.059 11.11-22.579 21.504-34.304 31.386-7.834 6.605-30.874 11.981-45.466-2.611-14.541-14.592-84.378-84.326-84.378-84.326 20.582-14.746 40.602-30.976 59.136-49.459s34.662-38.502 49.459-59.136c0 0 69.786 69.734 84.326 84.326 14.643 14.643 9.267 37.632 2.611 45.414zM512 820.053c-229.12 0-414.771-185.651-414.771-414.72 0-229.12 185.651-414.771 414.771-414.771 229.018 0 414.72 185.651 414.72 414.771 0 229.018-185.702 414.72-414.72 414.72zM512 92.962c-172.442 0-312.32 139.827-312.32 312.32s139.827 312.32 312.32 312.32c172.493 0 312.371-139.827 312.371-312.32 0-172.442-139.878-312.32-312.371-312.32z" />
<glyph unicode="&#xe903;" glyph-name="Indian_Rupee_symbol" horiz-adv-x="695" d="M462.893 858.99h168.063l64.365 96.743h-630.956l-64.365-96.743h109.523c110.944 0 213.336-8.569 254.284-101.347h-299.442l-64.365-96.748h375.886c-0.008-0.217-0.008-0.418-0.008-0.635 0-69.526-57.778-176.169-248.566-176.169l-92.312 0.106 0.102-90.391 369.701-462.074h164.639l-382.648 478.040c157.516 8.495 305.246 96.514 326.541 251.122h117.621l64.365 96.748h-183.665c-7.414 37.278-23.519 73.335-48.763 101.347z" />
<glyph unicode="&#xe904;" glyph-name="wallet" d="M512 315.733c0 35.346 28.654 64 64 64s64-28.654 64-64c0-35.346-28.654-64-64-64s-64 28.654-64 64zM928.032 539.733c-0.032 0-0.032 0 0 0l-0.032 192v96c0 53.024-43.008 96-96 96h-656c-97.056 0-176-78.976-176-176v-640c0-97.024 78.944-176 176-176h576c97.024 0 176 78.976 176 176v48c0 0 0 0 0.032 0 127.936 96.032 127.936 287.968 0 384zM176 859.733h656c17.632 0 32-14.336 32-32v-197.888c-10.048 3.584-20.736 5.888-32 5.888h-0.032v160c0 17.696-14.336 32-32 32h-672c-17.664 0-32-14.304-32-32v-126.176c-19.744 20.192-31.968 47.712-31.968 78.176 0 61.856 50.112 112 112 112zM799.968 763.733h-672v32h672v-32zM799.968 731.733v-32h-672v32h672zM799.968 667.733v-32h-623.968c-17.28 0-33.408 4.224-48 11.2v20.8h671.968zM864 107.733c0-61.856-50.144-112-112-112h-576c-61.888 0-112 50.144-112 112v504.352c30.432-25.184 69.472-40.352 112-40.352h656c17.632 0 32-14.336 32-32v-64h-288c-88.384 0-160-71.616-160-160s71.648-160 160-160h288v-48zM904.864 219.733h-328.864c-52.928 0-96 43.072-96 96s43.072 96 96 96h288c19.744 0.256 39.328 9.824 51.264 25.728 3.328 4.48 5.92 9.504 8 14.752 0.288 0.704 0.8 1.248 1.056 1.984 23.008-30.176 35.68-67.168 35.68-106.464 0-49.216-19.872-94.88-55.136-128z" />
<glyph unicode="&#xe905;" glyph-name="location" d="M512.064 387.861c105.888 0 192 86.144 192 192s-86.112 192-192 192c-105.888 0-192-86.112-192-192s86.112-192 192-192zM512.064 739.861c88.256 0 160-71.744 160-160s-71.744-160-160-160c-88.256 0-160 71.744-160 160s71.744 160 160 160zM512 955.733c-211.776 0-384-170.112-384-384.032 0-224 192.032-453.152 332.032-614.208 0.512-0.64 22.976-25.76 50.752-25.76 0.064 0 2.336 0 2.464 0 27.744 0 50.24 25.12 50.752 25.76 140.064 161.056 332.064 390.176 332.064 614.208 0 213.92-172.256 384.032-384.064 384.032zM515.744-0.523c-0.672-0.64-2.624-2.048-4.32-3.136-0.32 0.864-2.688 2.752-4.128 4.256-117.28 134.944-315.296 362.688-315.296 571.104 0 176.448 143.584 320.032 320 320.032 176.512 0 320.064-143.584 320.064-320.064 0-208.384-198.016-436.128-316.32-572.192z" />
<glyph unicode="&#xe906;" glyph-name="tag" d="M1004.512 511.477l-160 256c-23.36 37.408-64.384 60.16-108.512 60.16h-608c-70.688 0-128-57.312-128-128v-512c0-70.688 57.312-128 128-128h608c44.128 0 85.12 22.752 108.512 60.192l160 256c25.984 41.44 25.984 94.144 0 135.648zM950.24 409.749l-160-256.064c-11.744-18.816-32.064-30.048-54.24-30.048h-608c-35.296 0-64 28.736-64 64v512c0 35.296 28.704 64 64 64h608c22.176 0 42.496-11.264 54.24-30.048l160-256c12.896-20.64 12.896-47.264 0-67.84zM736 539.637c-53.056 0-96-42.976-96-96s42.944-96 96-96c52.992 0 96 43.008 96 96 0 53.024-43.008 96-96 96zM736 379.605c-35.36 0-64 28.672-64 64s28.64 64 64 64c35.328 0 64-28.672 64-64 0-35.296-28.672-64-64-64z" />
<glyph unicode="&#xe907;" glyph-name="eye" d="M1022.88 450.901c-0.32 1.344-0.128 2.784-0.64 4.096-0.192 0.544-0.672 0.832-0.864 1.344-0.32 0.768-0.256 1.632-0.672 2.368-92.8 177.632-294.816 304.896-507.936 304.896-213.152 0-415.136-127.072-508-304.672-0.416-0.736-0.352-1.6-0.672-2.368-0.224-0.512-0.672-0.8-0.864-1.344-0.512-1.312-0.32-2.752-0.64-4.096-0.576-2.4-1.12-4.704-1.12-7.168s0.576-4.736 1.12-7.168c0.32-1.344 0.128-2.784 0.64-4.096 0.192-0.544 0.672-0.832 0.864-1.344 0.32-0.768 0.256-1.632 0.672-2.368 92.832-177.632 294.848-304.896 508-304.896 213.12 0 415.136 127.072 507.936 304.672 0.448 0.736 0.384 1.6 0.672 2.368 0.192 0.512 0.672 0.8 0.864 1.344 0.512 1.312 0.32 2.752 0.64 4.096 0.544 2.432 1.12 4.736 1.12 7.168s-0.576 4.768-1.12 7.168zM512.736 188.117c-179.68 0-355.584 102.112-443.232 255.84 88.128 153.92 263.776 255.68 443.232 255.68 179.616 0 355.552-102.144 443.2-255.84-88.128-153.952-263.744-255.68-443.2-255.68zM512.736 571.765c8.832 0 15.936-7.136 15.936-16 0-8.8-7.136-15.968-15.936-15.968v-0.032c-52.928 0-95.968-43.040-95.968-95.904 0-8.832-7.168-16-15.968-16-8.832 0-16 7.168-16 16 0 70.56 57.184 127.744 127.744 127.872 0.064 0 0.128 0.032 0.192 0.032zM512 667.733c-123.744 0-224-100.288-224-224s100.288-224 224-224c123.68 0 224 100.32 224 224 0 123.744-100.32 224-224 224zM512 251.733c-105.888 0-192 86.112-192 192s86.112 192 192 192c105.888 0 192-86.112 192-192s-86.112-192-192-192z" />
<glyph unicode="&#xe908;" glyph-name="search" d="M640 955.573c-212.064 0-384-171.936-384-384 0-64.832 16.224-125.856 44.64-179.456l-267.008-266.944 0.224-0.192c-20.864-20.512-33.856-48.928-33.856-80.512 0-62.368 50.56-112.928 112.928-112.928 31.52 0 59.968 12.992 80.48 33.888l-0.064 0.064 266.912 266.88c53.632-28.512 114.752-44.8 179.744-44.8 212.064 0 384 171.936 384 384s-171.936 384-384 384zM153.44 5.429c-10.304-10.688-24.576-17.376-40.512-17.376-31.2 0-56.48 25.248-56.48 56.448 0 15.936 6.72 30.176 17.376 40.512l-0.288 0.256 258.112 258.112c22.56-30.432 49.44-57.312 79.808-79.936l-258.016-258.016zM640 251.541c-176.704 0-320 143.328-320 320 0 176.704 143.296 320 320 320 176.672 0 320-143.296 320-320 0-176.672-143.328-320-320-320zM640 795.573c8.8 0 16-7.168 16-16s-7.2-16-16-16c-106.048 0-192-85.984-192-192 0-8.832-7.168-16-16-16s-16 7.168-16 16c0 123.712 100.256 224 224 224z" />
<glyph unicode="&#xe909;" glyph-name="iconmonstr-lifebuoy-2" d="M1006.848 575.36c-13.525 59.904-15.616 105.813-17.749 143.829-7.125 125.909-67.413 203.691-208.64 205.995-38.784 0.64-85.205 1.536-150.229 16.896-38.229 8.96-77.952 13.653-118.187 13.653-44.928 0-90.453-5.845-135.125-18.048-54.869-11.179-95.744-11.989-130.475-12.544-141.227-2.261-201.515-80.043-208.64-205.952-1.749-31.36-3.499-68.139-11.648-113.664-17.195-51.541-26.155-106.368-26.155-161.92 0-53.973 8.491-108.629 26.155-161.707 8.149-45.483 9.899-82.261 11.648-113.621 7.125-125.909 67.413-203.691 208.64-205.952 34.731-0.555 75.648-1.365 130.603-12.587 44.075-11.989 89.557-18.005 134.955-18.005 39.765 0 79.445 4.608 118.229 13.739 65.024 15.36 111.445 16.213 150.229 16.853 141.269 2.261 201.557 80.043 208.64 205.952 2.133 37.931 4.224 83.669 17.664 143.36 11.477 43.179 17.237 87.595 17.237 132.053 0 44.288-5.717 88.619-17.152 131.669zM946.517 716.757l0.256-4.523c-43.179 69.803-102.443 128.256-172.928 170.411l5.931-0.128c108.928-1.792 160.384-52.907 166.741-165.76zM783.659 567.338l111.275 63.36c27.733-56.533 43.733-119.851 43.733-186.965s-16-130.432-43.733-187.008l-111.275 63.36c17.195 37.717 27.008 79.488 27.008 123.648s-9.813 85.931-27.008 123.605zM512 17.066c-67.371 0-130.901 16.128-187.605 44.032l63.36 111.275c37.888-17.365 79.872-27.307 124.245-27.307s86.357 9.941 124.245 27.307l63.36-111.275c-56.704-27.904-120.235-44.032-187.605-44.032zM512 230.4c-117.632 0-213.333 95.701-213.333 213.333s95.701 213.333 213.333 213.333 213.333-95.701 213.333-213.333-95.701-213.333-213.333-213.333zM512 870.4c67.371 0 130.901-16.128 187.605-44.032l-63.36-111.275c-37.888 17.365-79.872 27.307-124.245 27.307s-86.357-9.941-124.245-27.307l-63.36 111.275c56.704 27.904 120.235 44.032 187.605 44.032zM247.125 882.474l2.816 0.043c-68.523-41.003-126.592-97.408-169.429-164.693 6.656 112.085 58.069 162.901 166.613 164.651zM240.341 320.128l-111.275-63.36c-27.733 56.533-43.733 119.851-43.733 186.965s16 130.432 43.733 187.008l111.275-63.36c-17.195-37.717-27.008-79.488-27.008-123.648s9.813-85.931 27.008-123.605zM80.597 169.258c42.88-67.328 101.291-123.392 169.856-164.352l-3.328 0.085c-108.416 1.749-159.829 52.48-166.528 164.267zM779.776 4.992l-6.4-0.128c70.571 42.112 130.176 100.309 173.397 170.112l-0.256-4.309c-6.357-112.811-57.813-163.925-166.741-165.675z" />
<glyph unicode="&#xe90a;" glyph-name="fire" d="M704 667.733c-1.984-85.6-66.24-157.888-66.24-157.888 0 159.232-125.76 285.888-125.76 285.888s-1.696-94.784-65.376-190.336c-63.68 222.944-254.784 350.336-254.784 350.336 95.552-350.336-31.84-477.76-31.84-732.544 0-149.472 126.528-291.456 320-291.456 286.624 0 342.048 105.216 371.68 223.776 40.832 163.232-20.32 352.992-147.68 512.224zM789.632 171.061c-20.576-82.208-43.808-175.328-309.632-175.328-160.256 0-256 115.648-256 227.456 0 85.632 15.616 155.936 32.128 230.368 20.992 94.368 42.496 190.976 33.184 318.752 98.688-136.608 133.824-317.6 133.824-317.6s91.872 128.992 116.576 188.896c18.912-38.496 36.288-167.872 36.288-295.872 0 0 84.992 70.016 148.736 175.296 67.136-120.384 91.328-246.24 64.896-351.968zM717.824 418.293l5.952-33.12c13.312-74.176 5.856-161.856-18.944-223.424-2.496-6.24-8.512-10.016-14.816-10.016-2.016 0-4.064 0.384-6.016 1.152-8.192 3.296-12.192 12.608-8.864 20.8 18.688 46.368 26.56 111.648 21.568 171.296-32.128-35.904-72.608-73.312-159.104-114.4l-16.192-7.648-5.824 16.896c-11.584 33.6-23.264 67.552-28.32 114.88-17.312-27.296-33.12-51.616-59.68-87.776l-16.256-22.144-11.264 25.088c-27.552 61.6-48.544 109.696-65.184 152-15.392-49.44-26.88-106.624-26.88-222.112 0-8.832-7.2-16-16-16-8.864 0-16 7.168-16 16 0 150.688 20 208.736 41.12 270.208l16.64 48.32 15.328-43.2c16.48-46.432 38.176-97.6 68.864-166.784 20.224 28.576 33.792 50.080 50.176 76.032l48.576 76.096v-54.688c0-61.568 11.072-101.792 23.264-138.336 85.088 42.816 116.96 80.064 150.656 119.36l27.2 31.52z" />
<glyph unicode="&#xe90b;" glyph-name="clip" d="M939.616 807.349c112.512-112.448 112.512-294.816 0-407.264l-350.944-350.976c-12.512-12.544-32.736-12.544-45.248 0-12.576 12.512-12.576 32.704 0 45.248l346.432 346.464c87.488 87.488 87.488 229.248-0.064 316.768-87.36 87.488-229.248 87.488-316.736 0l-462.304-456.864c-62.496-62.464-62.496-163.776 0-226.24 62.496-62.496 163.744-62.496 226.24 0l466.88 461.344c37.44 37.44 37.44 98.336 0 135.776-37.44 37.408-98.304 37.408-135.744 0l-351.008-351.008c-12.512-12.512-32.736-12.512-45.248 0-12.512 12.544-12.512 32.736 0 45.28l350.976 350.976c62.432 62.464 163.744 62.464 226.24 0 62.496-62.496 62.496-163.776 0-226.272l-466.88-461.376c-87.296-87.328-229.408-87.328-316.736 0s-87.328 229.472 0 316.8l466.88 461.344c112.448 112.512 294.816 112.512 407.264 0z" />
<glyph unicode="&#xe90c;" glyph-name="howitworks-price" d="M664.363 827.733h164.949l66.688 128h-701.355l-66.645-128h211.755c96.299 0 160.384-35.797 195.797-85.333h-340.907l-66.645-128h438.571c-11.349-88.363-84.267-170.667-210.859-170.667h-185.045v-128c99.029 0 67.584 23.595 312.491-384h199.509l-254.421 384c106.88 16.896 277.163 103.040 295.253 298.667h105.813l66.688 128h-185.387c-10.155 30.165-25.685 59.008-46.251 85.333z" />
<glyph unicode="&#xe90d;" glyph-name="key" d="M704.128 955.733c-176.736 0-320-143.296-320-320 0-41.12 8.608-80.032 22.816-116.128l-388.768-388.736c-11.232-11.264-18.176-21.952-18.176-39.136v-96c0-34.24 29.728-64 64-64h96c17.152 0 28 6.88 39.232 18.048l45.92 45.952h74.976c35.328 0 64 28.672 64 64v64h64c35.328 0 64 28.672 64 64v75.008l75.808 75.872c36.128-14.24 75.008-22.88 116.192-22.88 176.672 0 320 143.296 320 320s-143.328 320-320 320zM704.128 379.733c-47.36 0-91.264 13.76-129.312 36.224l-11.008-10.976-96.96-96.992c-12-12-18.752-28.256-18.752-45.248v-75.008h-64c-35.328 0-64-28.64-64-64v-64h-74.944c-16.96 0-33.248-6.752-45.248-18.752l-45.376-45.376-90.432 0.128-0.096 91.2 373.28 372.608c0 0 0-0.032 0.032-0.064l47.008 47.008c-22.464 38.048-36.224 81.92-36.224 129.28 0 141.376 114.656 256 256 256s256-114.624 256-256-114.592-256.032-255.968-256.032zM890.24 692.085c-35.872 49.984-79.552 93.6-129.76 129.728-8.16 5.92-18.72 7.392-28.224 4.064-44.448-15.648-74.88-46.048-90.432-90.496-1.184-3.328-1.76-6.784-1.76-10.208 0-6.368 1.984-12.672 5.824-18.016 36-50.048 79.616-93.696 129.696-129.696 8.192-5.888 18.688-7.392 28.192-4.096 44.512 15.552 74.944 46.016 90.56 90.496 1.184 3.328 1.76 6.784 1.76 10.208-0.032 6.368-2.048 12.672-5.856 18.016zM794.24 603.413c-47.296 34.016-88.48 75.2-122.24 121.376 12.384 35.296 35.552 58.464 69.824 71.072 47.328-34.080 88.448-75.168 122.112-121.952-12.512-35.040-35.616-58.080-69.696-70.496z" />
<glyph unicode="&#xe90e;" glyph-name="howitworks-verify" d="M640 443.733c0-70.699-57.301-128-128-128s-128 57.301-128 128c0 8.491 0.853 16.768 2.432 24.789 62.891-23.083 124.885 37.632 102.613 101.163 7.424 1.28 15.104 2.048 22.955 2.048 70.699 0 128-57.344 128-128zM512.64 742.4c-322.944 0-512.64-279.509-512.64-279.509s206.293-317.824 512.64-317.824c329.941 0 511.36 317.824 511.36 317.824s-183.083 279.509-511.36 279.509zM512 230.4c-117.803 0-213.333 95.488-213.333 213.333 0 117.803 95.531 213.333 213.333 213.333 117.845 0 213.333-95.531 213.333-213.333 0-117.845-95.488-213.333-213.333-213.333z" />
<glyph unicode="&#xe90f;" glyph-name="howitworks-join" d="M0 291.754l82.432 322.645 150.443-38.016-84.224-322.645-148.651 38.016zM785.707 253.269c5.333-12.245 7.979-25.515 6.613-38.827-3.371-35.371-29.781-61.781-62.165-68.352-10.837-22.741-31.275-37.845-54.827-42.752-10.411-21.845-30.805-37.973-55.296-43.093-13.867-28.501-41.387-43.179-71.424-43.179-22.016 0-42.837 7.808-57.856 22.955-39.595-17.237-81.152 2.048-95.232 36.821-25.429 2.901-47.232 19.285-56.832 42.539-25.557 3.029-47.531 19.541-57.173 42.795-50.688 5.888-78.848 61.44-51.115 106.453-9.941 2.475-21.077 4.437-32.043 6.485l16.341 62.464c22.357-4.267 43.093-9.344 61.995-15.275 38.955 27.947 91.776 12.587 108.757-28.971 25.941-2.944 47.616-19.797 56.917-42.667 25.515-2.901 47.403-19.243 56.96-42.581 31.488-3.499 58.027-27.861 61.824-61.184l0.085-9.6 19.2-17.152c10.752-12.416 29.013-13.824 40.96-4.523 12.203 9.515 13.824 26.624 3.2 38.784l-62.165 54.571c-6.699 5.931 2.219 16.213 9.088 10.283l63.616-55.808c10.965-12.544 29.525-14.165 41.344-4.864 12.16 9.387 13.483 26.923 2.901 39.083l-80.896 69.461c-6.912 5.76 2.048 16.213 8.875 10.325l82.944-71.211c10.581-12.032 28.928-14.293 41.259-4.864 12.075 9.387 14.891 25.856-0.085 42.453-52.907 47.445-113.963 102.613-176.768 161.963-15.147-20.821-92.843-64.085-139.904-64.085s-75.904 28.8-83.627 57.301c-6.699 24.832 2.176 48.597 22.656 60.544 22.827 13.355 45.013 32.512 66.645 54.144-33.664 25.003-51.328 16.981-88.192-0.555-21.461-10.155-46.933-22.229-79.104-27.605l18.688 71.253c56.619 20.821 108.757 68.608 192.213 3.541l20.949 23.552c16.853 19.072 38.869 30.507 64.128 30.507 18.603 0 38.827-6.869 60.075-17.792 64.768-33.835 97.835-53.589 146.901-55.211l16.811-64.341h-0.341c-76.672-1.408-114.176 21.675-192.683 62.72-21.888 11.221-36.651 13.568-46.933 1.877-41.984-47.787-86.656-98.517-136.192-130.688 24.448-19.541 86.144 19.541 110.592 39.253 10.667 8.576 27.221 19.968 48.128 19.968 23.595 0 40.747-14.123 53.077-26.411 29.013-29.013 109.653-101.931 145.365-134.059 18.517 10.325 37.035 18.56 55.936 25.813l16.341-62.592c-13.611-5.717-27.008-12.203-40.533-19.669zM314.795 215.936l25.984 31.872c10.667 12.8 9.173 30.805-3.413 40.277-12.629 9.515-31.445 6.741-42.069-5.973l-26.027-31.957c-10.709-12.715-9.131-30.763 3.413-40.192s31.445-6.784 42.112 5.973zM371.456 173.013l26.325 32.213c10.581 12.672 9.088 30.805-3.499 40.235-12.544 9.429-31.317 6.784-41.984-6.059l-26.283-32.171c-10.709-12.8-8.96-30.379 3.669-39.936 12.672-9.472 31.104-7.125 41.771 5.717zM428.757 130.688l25.941 31.872c10.709 12.757 9.173 30.763-3.413 40.277-12.629 9.472-31.36 6.699-42.069-6.059l-25.984-31.787c-10.709-12.8-9.088-30.891 3.499-40.32 12.501-9.429 31.317-6.827 42.027 6.016zM508.331 160.17c-12.544 9.557-31.36 6.784-42.112-5.931l-26.112-32.043c-10.624-12.757-9.088-30.805 3.499-40.235s31.36-6.827 42.069 6.059l26.027 32c10.795 12.672 9.259 30.72-3.371 40.149zM569.216 111.786l-10.24 9.045c-2.688-10.197-7.381-19.797-14.165-27.733l-15.275-18.816c5.675-4.523 12.288-7.509 19.115-7.509 6.357 0 12.587 1.963 17.707 5.888 12.117 9.515 13.525 26.965 2.859 39.125zM791.125 576.384l84.224-322.645 148.651 38.016-82.432 322.645-150.443-38.016zM451.541 870.4l-42.069-7.424 22.229-126.037 41.984 7.424-22.144 126.037zM614.528 862.976l-42.027 7.424-22.229-126.037 42.027-7.424 22.229 126.037zM768 810.581l-36.992 21.333-64-110.848 36.992-21.333 64 110.848zM292.992 831.914l-36.992-21.333 64-110.848 36.992 21.333-64 110.848z" />
<glyph unicode="&#xe910;" glyph-name="howitworks-register" d="M635.733 138.965l-118.613-118.571c-118.229-118.272-310.101-118.272-428.416 0-118.272 118.315-118.229 310.144 0 428.416l118.571 118.571 90.496-90.496-118.571-118.571c-68.181-68.181-68.181-179.2 0-247.339 68.267-68.267 179.243-68.267 247.424 0l118.571 118.485 90.539-90.496zM506.88 866.986l-118.571-118.571 90.496-90.496 118.613 118.571c68.181 68.181 179.157 68.181 247.253-0.043 68.352-68.181 68.352-179.157 0.171-247.339l-118.571-118.571 90.496-90.496 118.571 118.528c118.229 118.315 118.229 310.144 0 428.416-118.357 118.272-310.187 118.272-428.459 0zM253.227 900.906l61.44 8.704 18.688-131.541-61.355-8.747-18.773 131.584zM46.080 641.066l8.789 61.483 131.584-18.773-8.789-61.44-131.584 18.731zM250.581 748.629l-43.861-43.947-94.080 93.995 43.904 43.904 94.037-93.952zM770.731-13.398l-61.483-8.704-18.688 131.541 61.397 8.747 18.773-131.584zM977.92 246.442l-8.832-61.483-131.584 18.731 8.832 61.483 131.584-18.731zM773.419 138.922l43.819 43.904 94.080-94.037-43.904-43.904-93.995 94.037z" />
<glyph unicode="&#xe911;" glyph-name="howitworks-city" d="M512 913.066c-134.315 0-256-108.928-256-243.285 0-134.315 111.019-294.699 256-524.715 144.981 230.016 256 390.4 256 524.715 0 134.357-121.643 243.285-256 243.285zM512 571.733c-47.147 0-85.333 38.187-85.333 85.333s38.187 85.333 85.333 85.333 85.333-38.187 85.333-85.333-38.187-85.333-85.333-85.333zM853.333 315.733h-133.76c-16.427-27.349-34.048-55.851-52.565-85.333h133.589l21.333-42.667h-181.931l-14.677-23.211-12.331-19.456h23.808l36.608-85.333h-319.488l36.608 85.333h20.437l-12.331 19.456-14.635 23.211h-87.125l-43.136 42.667h103.253c-18.56 29.483-36.181 57.984-52.565 85.333h-133.76l-170.667-341.333h1024l-170.667 341.333zM307.456 59.733h-169.387l75.264 150.528 64.683-65.195h66.091l-36.651-85.333zM683.264 145.066h160l42.667-85.333h-166.059l-36.608 85.333z" />
<glyph unicode="&#xe912;" glyph-name="howitworks-attach" d="M921.003 509.397l-428.8-429.867c-83.2-83.157-218.539-83.157-301.696 0s-83.2 218.539 0 301.739l453.461 451.627c49.92 49.92 131.115 49.92 181.035 0 49.877-49.92 49.92-131.072 0-180.992l-362.965-361.131c-16.64-16.64-43.691-16.64-60.331 0s-16.64 43.691 0 60.331l302.635 300.8-60.373 60.331-302.635-300.757c-50.005-50.005-49.963-131.115 0-181.077s131.029-49.963 180.992 0l362.965 361.131c41.685 41.685 62.464 96.256 62.464 150.869 0 118.144-95.829 213.291-213.333 213.291-54.613 0-109.184-20.821-150.869-62.507l-453.419-451.541c-58.283-58.368-87.467-134.784-87.467-211.243 0-164.821 133.547-298.667 298.667-298.667 76.459 0 152.875 29.184 211.2 87.467l428.8 429.867-60.331 60.331z" />
<glyph unicode="&#xe913;" glyph-name="howitworks-contact" d="M682.667-9.43l-150.229 289.92c-0.299-0.171-84.224-41.387-88.064-43.136-95.573-46.336-290.091 333.653-196.651 383.744l88.832 43.776-148.992 290.859-89.856-44.331c-69.205-36.053-98.048-112.085-97.664-206.635 1.152-294.485 286.336-768.555 521.045-772.992 24.533-0.469 48.512 4.181 71.552 14.72 5.163 2.347 89.685 43.904 90.027 44.075zM853.333 230.4h-42.667v554.667h42.667v-554.667zM768 315.733h-42.667v384h42.667v-384zM938.667 358.4h-42.667v298.667h42.667v-298.667zM682.667 401.066h-42.667v213.333h42.667v-213.333zM597.333 443.733h-42.667v128h42.667v-128zM1024 443.733h-42.667v128h42.667v-128zM512 486.4h-42.667v42.667h42.667v-42.667z" />
<glyph unicode="&#xe914;" glyph-name="howitworks-service" d="M256 699.733h-256v256h256v-256zM640 955.733h-256v-256h256v256zM1024 955.733h-256v-256h256v256zM256 571.733h-256v-256h256v256zM640 571.733h-256v-256h256v256zM1024 571.733h-256v-256h256v256zM256 187.733h-256v-256h256v256zM640 187.733h-256v-256h256v256zM1024 187.733h-256v-256h256v256z" />
<glyph unicode="&#xe915;" glyph-name="result-experience" d="M594.389 518.613l86.229 87.125-118.528 17.195-52.181 113.195-52.139-113.195-118.528-17.152 86.229-87.125-20.992-123.861 105.429 59.349 105.472-59.349-20.992 123.819zM189.867 325.845c-36.949 58.965-58.624 128.512-58.624 203.221 0 212.096 171.904 384 384 384s384-171.904 384-384c0-76.459-22.613-147.541-61.141-207.403-25.899 13.227-52.395 24.96-79.445 34.944 34.645 48.768 55.253 108.203 55.253 172.459 0 164.693-134.016 298.667-298.667 298.667s-298.667-133.973-298.667-298.667c0-62.976 19.712-121.344 53.077-169.557-27.136-9.6-53.76-20.821-79.787-33.664zM842.965 221.312l-99.584-141.739c-68.395 39.424-147.115 62.464-231.381 62.848-84.267-0.384-162.987-23.424-231.381-62.848l-99.584 141.739c96.683 59.136 209.579 93.952 330.965 94.336 121.387-0.384 234.283-35.2 330.965-94.336zM1024 102.4h-100.651l-24.149-128c-26.155 43.179-59.221 81.579-97.152 114.347l99.968 142.293c46.421-37.504 87.552-78.848 121.984-128.64zM122.027 231.040l99.968-142.293c-37.973-32.811-70.997-71.168-97.152-114.347l-24.149 128h-100.693c34.432 49.792 75.563 91.136 122.027 128.64z" />
<glyph unicode="&#xe916;" glyph-name="payment-amex" d="M790.613 514.602l-43.051-46.549-41.728 46.549h-136.405v-142.037h134.272l43.349 47.061 41.728-47.061h43.605l-63.403 70.613 63.403 71.424h-41.771zM686.549 402.005h-83.456v28.373h74.368v28.885h-74.368v25.941h85.077l37.163-41.472-38.784-41.728zM314.709 519.424l-0.427 0.853h0.427v-0.853zM442.581 418.304l-44.416 96.299h-55.381v-134.272l-57.515 134.272h-50.517l-60.715-142.037h36.907l13.099 31.829h70.613l13.099-31.829h69.035v111.275l49.237-111.275h29.952l48.939 111.275 0.256-111.275h33.451v142.037h-55.125l-40.917-96.299zM236.075 433.834l23.253 56.704 23.253-56.704h-46.507zM938.667 785.066h-853.333c-47.104 0-85.333-38.229-85.333-85.333v-512c0-47.104 38.229-85.333 85.333-85.333h853.333c47.104 0 85.333 38.229 85.333 85.333v512c0 47.104-38.229 85.333-85.333 85.333zM896 344.746h-121.984l-27.008 30.763-28.885-30.763h-431.232l-12.843 31.573h-29.44l-12.843-31.573h-103.765l86.656 197.973h203.563l22.741-51.115 22.187 51.115h258.389l26.197-30.208 28.075 30.208h120.192l-86.955-99.499 86.955-98.475z" />
<glyph unicode="&#xe917;" glyph-name="payment-visa" d="M838.912 479.744l16-73.216h-57.344l27.52 70.869 9.173 24.192 4.651-21.845zM1024 699.733v-512c0-47.104-38.229-85.333-85.333-85.333h-853.333c-47.104 0-85.333 38.229-85.333 85.333v512c0 47.104 38.229 85.333 85.333 85.333h853.333c47.104 0 85.333-38.229 85.333-85.333zM292.437 316.97l108.757 252.971h-73.173l-67.627-172.843-7.211 35.115-24.235 116.48c-4.181 16.085-16.341 20.864-31.317 21.419h-111.403l-0.896-5.248c27.093-6.571 51.328-16.043 72.576-27.776l61.44-220.16 73.088 0.043zM498.219 570.154h-69.077l-43.179-253.483h69.077l43.179 253.483zM695.552 399.53c0.256 28.843-18.133 50.773-57.984 68.864-24.149 11.733-38.955 19.541-38.784 31.403 0 10.539 12.501 21.803 39.552 21.803 22.613 0.341 38.955-4.565 51.712-9.728l6.187-2.901 9.344 54.912c-13.696 5.163-35.157 10.667-61.909 10.667-68.267 0-116.352-34.389-116.779-83.669-0.384-36.437 34.347-56.747 60.544-68.864 26.88-12.416 35.925-20.352 35.797-31.445-0.171-16.981-21.461-24.747-41.344-24.747-27.648 0-42.325 3.84-65.024 13.312l-8.917 4.053-9.685-56.747c16.128-7.083 45.995-13.227 76.971-13.525 72.619 0 119.765 34.005 120.32 86.613zM938.667 316.586l-55.936 253.312h-53.376c-16.555 0-28.928-4.523-36.181-21.035l-102.613-232.277h72.533l14.549 38.101 88.491-0.128 8.405-37.973h64.128z" />
<glyph unicode="&#xe918;" glyph-name="payment-master" d="M659.84 254.122c0-8.235-5.461-14.464-13.611-14.464-8.491 0-13.696 6.528-13.696 14.464s5.205 14.464 13.696 14.464c8.107-0.043 13.611-6.272 13.611-14.464zM369.109 268.544c-8.491 0-13.696-6.528-13.696-14.464s5.205-14.464 13.696-14.464c8.107 0 13.611 6.229 13.611 14.464s-5.461 14.464-13.611 14.464zM513.792 269.013c-6.997 0-10.965-4.437-11.989-10.965h23.424c-1.024 6.997-5.077 10.965-11.435 10.965zM737.365 268.544c-8.491 0-13.696-6.528-13.696-14.464s5.205-14.464 13.696-14.464c8.107 0 13.611 6.229 13.611 14.464s-5.504 14.464-13.611 14.464zM1024 699.733v-512c0-47.104-38.229-85.333-85.333-85.333h-853.333c-47.104 0-85.333 38.229-85.333 85.333v512c0 47.104 38.229 85.333 85.333 85.333h853.333c47.104 0 85.333-38.229 85.333-85.333zM236.544 487.040c0-93.909 76.117-170.027 170.027-170.027 32.811 0 63.445 9.344 89.429 25.429-41.259 34.688-67.499 86.613-67.499 144.597s26.283 109.909 67.499 144.597c-25.984 16.085-56.576 25.429-89.429 25.429-93.867 0-170.027-76.117-170.027-170.027zM336.64 259.882c0 10.667-6.784 17.835-17.749 17.963-5.76 0.085-11.691-1.707-15.872-8.021-3.115 4.992-8.021 8.021-14.933 8.021-4.821 0-9.557-1.408-13.227-6.699v5.589h-9.813v-45.141h9.899v25.045c0 7.851 4.352 11.989 11.051 11.989 6.528 0 9.813-4.267 9.813-11.904v-25.131h9.899v25.045c0 7.851 4.523 11.989 11.051 11.989 6.699 0 9.899-4.267 9.899-11.904v-25.131h9.984v28.288zM391.979 276.693h-9.813v-5.461c-3.115 4.053-7.851 6.613-14.251 6.613-12.672 0-22.571-9.899-22.571-23.723s9.899-23.723 22.571-23.723c6.443 0 11.136 2.56 14.251 6.613v-5.461h9.813v45.141zM441.643 245.12c0 7.936-5.931 12.075-15.787 13.525l-4.608 0.683c-4.267 0.555-7.637 1.408-7.637 4.437 0 3.328 3.2 5.291 8.576 5.291 5.76 0 11.349-2.176 14.080-3.883l4.267 7.936c-4.736 3.115-11.221 4.736-18.432 4.736-11.435 0-18.773-5.461-18.773-14.464 0-7.381 5.461-11.904 15.573-13.312l4.608-0.683c5.376-0.768 7.936-2.176 7.936-4.736 0-3.499-3.584-5.461-10.283-5.461-6.784 0-11.691 2.176-15.019 4.736l-4.608-7.637c5.376-4.011 12.16-5.888 19.541-5.888 13.013 0 20.565 6.144 20.565 14.72zM485.376 233.898l-2.816 8.405c-2.944-1.707-6.144-2.56-8.704-2.56-4.907 0-6.528 3.029-6.528 7.552v20.395h16.043v8.96h-16.043v13.696h-9.899v-13.696h-9.173v-8.96h9.173v-20.608c0-10.496 4.053-16.725 15.659-16.725 4.267 0.043 9.173 1.365 12.288 3.541zM535.424 254.122c-0.085 14.080-8.789 23.723-21.461 23.723-13.227 0-22.485-9.643-22.485-23.723 0-14.336 9.643-23.723 23.125-23.723 6.784 0 13.013 1.707 18.517 6.315l-4.821 7.253c-3.797-3.029-8.576-4.736-13.141-4.736-6.315 0-12.075 2.944-13.525 11.051h33.536l0.256 3.84zM574.165 276.565l-6.997 1.237c-5.675 0-9.344-2.645-11.904-6.613v5.461h-9.728v-45.141h9.813v25.344c0 7.467 3.2 11.605 9.643 11.605l6.144-1.152 3.029 9.259zM587.307 254.122c0 8.704 5.76 14.336 13.611 14.464 4.267 0 8.107-1.408 11.819-4.053l4.736 7.936c-4.907 3.883-9.429 5.376-16.256 5.376-14.549 0-24.064-10.027-24.064-23.723s9.472-23.723 24.021-23.723c6.784 0 11.349 1.493 16.256 5.376l-4.736 7.936c-3.669-2.645-7.552-4.053-11.819-4.053-7.808 0.085-13.568 5.76-13.568 14.464zM669.056 276.693h-9.813v-5.461c-3.115 4.053-7.851 6.613-14.251 6.613-12.672 0-22.571-9.899-22.571-23.723 0-13.781 9.899-23.723 22.571-23.723 6.443 0 11.136 2.56 14.251 6.613v-5.461h9.813v45.141zM710.613 276.565l-6.997 1.237c-5.675 0-9.344-2.645-11.904-6.613v5.461h-9.728v-45.141h9.813v25.344c0 7.467 3.2 11.605 9.643 11.605l6.144-1.152 3.029 9.259zM760.192 294.826h-9.813v-23.595c-3.115 4.053-7.851 6.613-14.251 6.613-12.672 0-22.571-9.899-22.571-23.723 0-13.781 9.899-23.723 22.571-23.723 6.443 0 11.136 2.56 14.251 6.613v-5.461h9.813v63.275zM787.456 487.040c0 93.909-76.16 170.027-170.027 170.027s-170.027-76.117-170.027-170.027c0-93.909 76.117-170.027 170.027-170.027s170.027 76.117 170.027 170.027z" />
<glyph unicode="&#xe919;" glyph-name="astronaut-view" d="M712.249 295.822h-430.080v-237.796h29.582v211.627h63.716v-196.836h275.342v196.836h63.716v-211.627h29.582v237.796h-31.858zM394.809 269.653c-2.276-2.276-3.413-4.551-5.689-6.827v6.827h5.689zM389.12 226.417c3.413 19.342 14.791 34.133 29.582 43.236h53.476c15.929-9.102 28.444-25.031 30.72-45.511v0-61.44c-13.653 17.067-34.133 27.307-55.751 27.307-23.893 0-44.373-11.378-58.027-29.582v65.991zM504.036 128.569v-4.551h-113.778c3.413 29.582 27.307 52.338 56.889 52.338 28.444-1.138 51.2-20.48 56.889-47.787zM504.036 106.951v-18.204h-113.778v19.342l113.778-1.138zM497.209 269.653h28.444c-5.689-5.689-10.24-12.516-13.653-20.48-4.551 7.964-9.102 14.791-14.791 20.48zM518.827 224.142c2.276 19.342 13.653 36.409 30.72 45.511h53.476c15.929-9.102 28.444-25.031 30.72-45.511v-63.716c-13.653 18.204-34.133 29.582-58.027 29.582s-44.373-12.516-58.027-30.72v64.853zM519.964 122.88c3.413 29.582 27.307 52.338 56.889 52.338s53.476-22.756 56.889-52.338h-113.778zM634.88 89.884h-113.778v18.204h113.778v-18.204zM634.88 261.689c-2.276 2.276-4.551 5.689-6.827 7.964h6.827v-7.964zM514.276 531.342v0c76.231 0 138.809 62.578 138.809 139.947 0 32.996-9.102 51.2-17.067 61.44 0 0-1.138 1.138-2.276 3.413l-1.138 1.138c-10.24 10.24-43.236 32.996-118.329 32.996 0 0-1.138 0-3.413 0-22.756 0-96.711-2.276-119.467-37.547-6.827-10.24-15.929-28.444-15.929-61.44 0-77.369 62.578-139.947 138.809-139.947zM400.498 725.902v0c20.48 31.858 95.573 32.996 111.502 32.996 2.276 0 3.413 0 3.413 0 73.956 0 103.538-23.893 111.502-30.72l1.138-1.138c1.138-1.138 2.276-2.276 2.276-2.276 5.689-6.827 14.791-22.756 14.791-54.613 0-71.68-58.027-130.844-128.569-130.844v0c-70.542 0-128.569 58.027-128.569 130.844-2.276 32.996 6.827 48.924 12.516 55.751zM352.711 298.097l11.378 11.378c-40.96 35.271-56.889 80.782-47.787 133.12 4.551 25.031 12.516 44.373 19.342 56.889 1.138 1.138 1.138 2.276 2.276 4.551 11.378 22.756 29.582 42.098 51.2 58.027 30.72-35.271 76.231-56.889 126.293-56.889 48.924 0 94.436 21.618 124.018 54.613 20.48-15.929 36.409-34.133 47.787-55.751 1.138-1.138 1.138-3.413 2.276-4.551 5.689-12.516 14.791-32.996 19.342-56.889 9.102-52.338-7.964-97.849-47.787-133.12l11.378-11.378c78.507 68.267 54.613 154.738 36.409 197.973v152.462c0 12.516-10.24 22.756-22.756 22.756h-4.551c-2.276 87.609-76.231 158.151-166.116 158.151s-163.84-70.542-166.116-158.151h-4.551c-12.516 0-22.756-10.24-22.756-22.756v-142.222c-20.48-37.547-54.613-134.258 30.72-208.213zM684.942 656.497c4.551 0 7.964-3.413 7.964-7.964v-125.156c-11.378 18.204-26.169 34.133-44.373 47.787 18.204 23.893 29.582 53.476 31.858 84.196h4.551zM514.276 813.511c83.058 0 150.187-65.991 150.187-146.773s-67.129-146.773-150.187-146.773c-83.058 0-150.187 65.991-150.187 146.773s67.129 146.773 150.187 146.773zM335.644 648.533c0 4.551 3.413 7.964 7.964 7.964h5.689c2.276-30.72 12.516-58.027 29.582-81.92-17.067-12.516-30.72-27.307-43.236-43.236v117.191zM647.396 319.715v180.907c0 6.827-4.551 12.516-11.378 12.516h-249.173c-5.689 0-11.378-5.689-11.378-12.516v-179.769h-36.409v-14.791c0-6.827 4.551-12.516 11.378-12.516h324.267c5.689 0 11.378 5.689 11.378 12.516v14.791h-38.684zM512 385.706c-11.378 0-19.342 9.102-19.342 19.342 0 11.378 9.102 19.342 19.342 19.342 11.378 0 19.342-9.102 19.342-19.342s-7.964-19.342-19.342-19.342z" />
<glyph unicode="&#xe91a;" glyph-name="astronaut-location" d="M235.52 608.711c55.751-19.342 120.604 31.858 120.604 31.858l12.516-78.507 12.516-77.369c0 0-64.853-51.2-120.604-31.858-77.369 27.307-108.089 19.342-126.293 3.413l-26.169 155.876c18.204 15.929 48.924 23.893 127.431-3.413zM705.422 557.511v0c-77.369 0-139.947 63.716-139.947 142.222 0 32.996 9.102 52.338 17.067 61.44 22.756 35.271 97.849 37.547 120.604 37.547 2.276 0 3.413 0 3.413 0 76.231 0 109.227-23.893 119.467-34.133l1.138-1.138c2.276-2.276 2.276-3.413 2.276-3.413 7.964-10.24 17.067-28.444 17.067-61.44-1.138-77.369-63.716-141.084-141.084-141.084zM820.338 755.484c0 0-1.138 1.138-2.276 2.276l-1.138 1.138c-7.964 6.827-38.684 30.72-113.778 30.72 0 0-1.138 0-3.413 0-14.791 0-92.16-1.138-112.64-32.996v0c-5.689-6.827-14.791-23.893-14.791-55.751 0-72.818 59.164-133.12 130.844-133.12v0c72.818 0 130.844 59.164 130.844 133.12 2.276 31.858-6.827 47.787-13.653 54.613zM763.449 320.853h-125.156v151.324h125.156v-151.324zM754.347 463.075h-106.951v-133.12h106.951v133.12zM731.591 442.595h-59.164v-9.102h59.164v9.102zM731.591 418.702h-59.164v-9.102h59.164v9.102zM731.591 395.946h-59.164v-9.102h59.164v9.102zM688.356 356.124c0-6.827 5.689-12.516 12.516-12.516s12.516 5.689 12.516 12.516c0 6.827-5.689 12.516-12.516 12.516s-12.516-5.689-12.516-12.516zM353.849 662.186c5.689 1.138 10.24-2.276 11.378-7.964l34.133-210.489c0 0 0 0 1.138 0l70.542 13.653 37.547 75.093v144.498c0 12.516 10.24 22.756 22.756 22.756h4.551c3.413 88.747 78.507 160.427 169.529 160.427 93.298 0 168.391-73.956 168.391-163.84 0-2.276 0-4.551 0-6.827 0 2.276 0 4.551 0 6.827 0 1.138 0 3.413 0 4.551h5.689c12.516 0 22.756-10.24 22.756-22.756v-146.773c9.102-19.342 13.653-40.96 13.653-63.716v-207.076h-17.067c-3.413-31.858-28.444-55.751-59.164-59.164v-160.427h-278.756v45.511c0 1.138 0 1.138 0 2.276v296.96l-34.133-31.858h-113.778l46.649-287.858c0 0 0 0 1.138 0 3.413 2.276 7.964 3.413 11.378 4.551 6.827 3.413 14.791 5.689 20.48 7.964 12.516 4.551 20.48 5.689 20.48 5.689s-6.827-4.551-18.204-11.378c-5.689-3.413-12.516-6.827-19.342-10.24-3.413-2.276-6.827-3.413-11.378-5.689 0 0-1.138 0-2.276-1.138 1.138 0 1.138 0 2.276-1.138 3.413-2.276 6.827-3.413 11.378-5.689 6.827-3.413 13.653-6.827 19.342-10.24 11.378-6.827 18.204-11.378 18.204-11.378s-7.964 2.276-20.48 5.689c-5.689 2.276-12.516 4.551-20.48 7.964-3.413 1.138-7.964 3.413-11.378 4.551-2.276 1.138-5.689 2.276-7.964 3.413 0 0-1.138 0-1.138 0s0 0-1.138 0c-3.413-1.138-5.689-2.276-9.102-3.413-3.413-2.276-7.964-3.413-11.378-4.551-6.827-3.413-14.791-5.689-20.48-7.964-12.516-4.551-20.48-5.689-20.48-5.689s6.827 4.551 18.204 11.378c5.689 3.413 12.516 6.827 19.342 10.24 3.413 2.276 6.827 3.413 11.378 5.689 0 0 1.138 0 2.276 1.138-1.138 0-1.138 0-2.276 1.138-3.413 2.276-6.827 3.413-11.378 5.689-6.827 3.413-13.653 6.827-19.342 10.24-11.378 6.827-18.204 11.378-18.204 11.378s7.964-2.276 20.48-5.689c5.689-2.276 12.516-4.551 20.48-7.964 3.413-1.138 6.827-2.276 10.24-4.551l-45.511 283.307c0 0 0 0 0 0-1.138 0-3.413 0-4.551 0-10.24 0-19.342 6.827-21.618 17.067l-11.378 47.787c-1.138 5.689 0 11.378 3.413 17.067 3.413 4.551 7.964 9.102 13.653 10.24 0 0 4.551 1.138 6.827 1.138l-32.996 208.213c-2.276 5.689 1.138 10.24 5.689 11.378zM524.516 676.977v-119.467c11.378 15.929 26.169 30.72 43.236 43.236-17.067 23.893-28.444 52.338-30.72 83.058h-5.689c-3.413 1.138-6.827-2.276-6.827-6.827zM537.031 689.493c0 2.276 0 4.551 0 6.827 0-2.276 0-4.551 0-6.827zM705.422 844.231c-84.196 0-152.462-67.129-152.462-149.049s68.267-149.049 152.462-149.049c84.196 0 152.462 67.129 152.462 149.049s-68.267 149.049-152.462 149.049zM886.329 676.977c0 4.551-3.413 7.964-7.964 7.964h-5.689c0 0 0 0 0 0-2.276-30.72-12.516-59.164-30.72-83.058 17.067-12.516 31.858-27.307 43.236-43.236v118.329zM824.889 88.746c-3.413 29.582-28.444 53.476-58.027 53.476s-54.613-22.756-58.027-53.476h116.053zM692.907 88.746c-3.413 29.582-28.444 53.476-58.027 53.476s-54.613-22.756-58.027-53.476h116.053zM885.191 258.275h-44.373v-44.373c22.756 3.413 39.822 21.618 44.373 44.373zM824.889 54.613v18.204h-116.053v-18.204h116.053zM692.907 54.613v18.204h-116.053v-18.204h116.053zM562.062 408.462v0h14.791v-281.031c13.653 18.204 34.133 29.582 58.027 29.582s45.511-12.516 59.164-30.72v111.502h13.653v-111.502c13.653 18.204 35.271 30.72 59.164 30.72s44.373-11.378 58.027-29.582v281.031h14.791v-134.258h60.302v192.284c0 48.924-26.169 93.298-67.129 122.88-30.72-35.271-76.231-58.027-128.569-58.027-51.2 0-96.711 22.756-127.431 58.027-21.618-15.929-39.822-36.409-51.2-59.164 0 0 0-1.138-1.138-1.138l-46.649-86.471-55.751-10.24c6.827-5.689 12.516-14.791 14.791-23.893 3.413-14.791 0-29.582-9.102-39.822l93.298 1.138 40.96 38.684zM370.916 423.253c-1.138-2.276-1.138-4.551-1.138-5.689l11.378-47.787c1.138-3.413 4.551-6.827 7.964-6.827 1.138 0 1.138 0 2.276 0 4.551 1.138 11.378 2.276 12.516 3.413v0c14.791 5.689 22.756 21.618 19.342 37.547-3.413 14.791-17.067 25.031-31.858 25.031-2.276 0-4.551 0-6.827-1.138-1.138 0-7.964-2.276-7.964-2.276-2.276 1.138-4.551 0-5.689-2.276z" />
<glyph unicode="&#xe91b;" glyph-name="astronaut-price" d="M427.804 316.302h126.293v152.462h-126.293v-152.462zM438.044 458.524h105.813v-131.982h-105.813v131.982zM457.387 439.182h63.716v-10.24h-63.716v10.24zM457.387 415.289h63.716v-10.24h-63.716v10.24zM457.387 391.395h63.716v-10.24h-63.716v10.24zM490.382 369.777c-9.102 0-17.067-7.964-17.067-17.067s7.964-17.067 17.067-17.067 17.067 7.964 17.067 17.067-7.964 17.067-17.067 17.067zM490.382 345.884c-3.413 0-6.827 3.413-6.827 6.827s3.413 6.827 6.827 6.827 6.827-3.413 6.827-6.827c0-4.551-3.413-6.827-6.827-6.827zM775.964 314.026c2.276 2.276 5.689 3.413 10.24 4.551v-28.444c-4.551 1.138-7.964 3.413-10.24 5.689s-3.413 4.551-3.413 9.102c0 4.551 1.138 6.827 3.413 9.102zM826.027 400.497l6.827 14.791c3.413 9.102 1.138 18.204-4.551 25.031 32.996 76.231 14.791 97.849 1.138 77.369-14.791-22.756-17.067-60.302-67.129 1.138-35.271 42.098-21.618-22.756-9.102-65.991h-31.858l-31.858 63.716c-1.138 4.551-3.413 9.102-5.689 14.791v141.084c0 12.516-10.24 22.756-22.756 22.756h-4.551c0-1.138 0-3.413 0-4.551 0-3.413 0-7.964 0-11.378h5.689c4.551 0 7.964-3.413 7.964-7.964v-113.778c-11.378 15.929-25.031 28.444-42.098 40.96 23.893 32.996 34.133 75.093 28.444 117.191-13.653 88.747-98.987 150.187-190.009 136.533-84.196-12.516-144.498-85.333-143.36-166.116 0 1.138 0 2.276 0 3.413s0 3.413 0 4.551h-5.689c-12.516 0-22.756-10.24-22.756-22.756v-146.773c-1.138-2.276-2.276-4.551-3.413-7.964l-35.271-69.404-14.791-13.653c-3.413 11.378-5.689 22.756-9.102 34.133-1.138 4.551-4.551 6.827-7.964 6.827h-2.276l-11.378 61.44-1.138 4.551c0 1.138 1.138 1.138 1.138 2.276 0 0 0 0 0 0 6.827 12.516 7.964 30.72 3.413 52.338-1.138 9.102-4.551 18.204-9.102 27.307-15.929 35.271-46.649 65.991-47.787 67.129l-9.102 7.964-3.413-7.964c-1.138-1.138-18.204-40.96-21.618-79.644-1.138-10.24 0-20.48 1.138-28.444 4.551-22.756 12.516-39.822 23.893-48.924l1.138-3.413 11.378-62.578c-3.413-1.138-5.689-4.551-4.551-7.964 0-6.827 1.138-12.516 1.138-19.342 0-5.689 2.276-20.48 4.551-42.098-7.964-3.413-14.791-11.378-14.791-20.48l-2.276-48.924c0-12.516 9.102-22.756 21.618-23.893 0 0 4.551 0 9.102 0 0-1.138 0-2.276 0-2.276s0 0 0 0c30.72-150.187 86.471-261.689 87.609-262.827 1.138-3.413 4.551-4.551 6.827-4.551s3.413 1.138 4.551 3.413c0 1.138 1.138 2.276 1.138 3.413s11.378 119.467-12.516 273.067l-4.551 21.618 46.649 18.204 47.787 35.271v-351.573h276.48v45.511c0 1.138 0 1.138 0 2.276v295.822l34.133-31.858 46.649 5.689c-19.342-30.72-31.858-70.542-31.858-103.538 0-67.129 50.062-91.022 111.502-91.022s111.502 23.893 111.502 91.022c1.138 54.613-30.72 124.018-75.093 149.049zM764.587 417.564c4.551 11.378 17.067 19.342 29.582 19.342 4.551 0 9.102-1.138 12.516-2.276 1.138 0 6.827-3.413 6.827-3.413 3.413-1.138 5.689-5.689 4.551-10.24l-19.342-44.373c-1.138-2.276-3.413-4.551-6.827-4.551-1.138 0-2.276 0-3.413 0-4.551 2.276-10.24 4.551-11.378 5.689v0c-13.653 9.102-18.204 26.169-12.516 39.822zM464.213 837.404c83.058 12.516 160.427-43.236 172.942-124.018s-45.511-157.013-128.569-169.529c-21.618-3.413-43.236-2.276-63.716 3.413 6.827 0 14.791 0 21.618 1.138v0c64.853 10.24 108.089 80.782 96.711 158.151-4.551 32.996-15.929 50.062-23.893 58.027 0 0-1.138 1.138-2.276 2.276h-1.138c-10.24 9.102-42.098 28.444-105.813 18.204 0 0-1.138 0-2.276 0-13.653-2.276-52.338-9.102-76.231-28.444 21.618 42.098 62.578 72.818 112.64 80.782zM334.507 699.733c0 7.964 1.138 14.791 3.413 22.756 1.138 3.413 2.276 5.689 3.413 7.964v0c12.516 34.133 75.093 44.373 88.747 46.649 1.138 0 2.276 0 2.276 0 62.578 9.102 91.022-10.24 98.987-15.929h1.138c1.138-1.138 2.276-1.138 2.276-2.276 5.689-6.827 15.929-21.618 21.618-53.476 11.378-71.68-28.444-137.671-88.747-146.773v0c-60.302-9.102-117.191 42.098-128.569 113.778-4.551 11.378-4.551 19.342-4.551 27.307zM306.062 672.426c0 4.551 3.413 7.964 7.964 7.964h4.551c0 0 0 0 0 0 0-4.551 1.138-9.102 1.138-13.653 3.413-26.169 13.653-48.924 28.444-69.404-17.067-12.516-30.72-27.307-43.236-43.236v118.329zM204.8 473.315l-32.996-5.689-10.24 56.889c5.689-1.138 11.378-1.138 17.067-1.138 5.689 1.138 11.378 3.413 15.929 5.689l10.24-55.751zM154.738 544.995c-9.102 5.689-14.791 19.342-19.342 38.684-1.138 4.551-1.138 10.24-1.138 17.067 0 0 2.276 43.236 13.653 78.507 0 0 34.133-42.098 43.236-68.267 2.276-5.689 3.413-11.378 4.551-15.929 3.413-19.342 2.276-34.133-4.551-42.098-3.413-5.689-10.24-9.102-18.204-10.24-5.689-3.413-12.516-2.276-18.204 2.276zM177.493 318.577v0c-1.138 0-4.551 0-6.827 0-3.413 0-5.689 0-5.689 0-4.551 0-7.964 3.413-6.827 7.964l2.276 48.924c0 1.138 1.138 3.413 2.276 4.551 1.138 2.276 3.413 3.413 6.827 3.413 0 0 0 0 0 0s3.413 0 5.689 0c1.138 0 1.138 0 1.138 0 17.067-1.138 31.858-15.929 30.72-32.996 0-13.653-9.102-25.031-21.618-29.582-3.413-2.276-5.689-2.276-7.964-2.276zM261.689 69.404c-17.067 39.822-52.338 127.431-75.093 235.52 19.342 5.689 34.133 22.756 34.133 43.236 1.138 26.169-19.342 47.787-45.511 48.924 0 0-2.276 0-3.413 0 0 2.276-1.138 4.551-1.138 6.827-1.138 14.791-2.276 29.582-3.413 44.373l48.924 7.964c3.413-12.516 6.827-26.169 10.24-38.684 7.964-31.858 14.791-64.853 19.342-98.987 18.204-112.64 18.204-205.938 15.929-249.173zM483.556 51.2h-117.191v18.204h116.053v-18.204zM367.502 85.333c3.413 29.582 28.444 53.476 58.027 53.476s54.613-22.756 58.027-53.476h-116.053zM614.4 51.2h-116.053v18.204h116.053v-18.204zM498.347 85.333c3.413 29.582 28.444 53.476 58.027 53.476s54.613-22.756 58.027-53.476h-116.053zM747.52 395.946c-9.102-6.827-18.204-15.929-26.169-25.031l-51.2-6.827-40.96 39.822h-14.791v-281.031c-13.653 18.204-34.133 29.582-58.027 29.582s-44.373-11.378-58.027-29.582v110.364h-14.791v-110.364c-13.653 18.204-34.133 29.582-58.027 29.582s-44.373-11.378-58.027-29.582v281.031h-14.791l-53.476-38.684-43.236-19.342-14.791 72.818 18.204 15.929 42.098 76.231c11.378 28.444 30.72 53.476 58.027 72.818 36.409-42.098 93.298-64.853 152.462-55.751 42.098 6.827 78.507 27.307 103.538 58.027 25.031-18.204 40.96-40.96 56.889-68.267l42.098-79.644 42.098 1.138c1.138-2.276 1.138-4.551 2.276-5.689-2.276-3.413-4.551-6.827-5.689-10.24-6.827-7.964-6.827-18.204-5.689-27.307zM826.027 238.933c-2.276-4.551-6.827-9.102-11.378-12.516-5.689-3.413-11.378-4.551-18.204-5.689v-12.516c0-3.413 0-4.551-1.138-6.827-1.138-1.138-2.276-2.276-3.413-2.276-2.276 0-3.413 0-3.413 1.138-1.138 1.138-1.138 2.276-1.138 4.551v13.653c-5.689 1.138-11.378 2.276-14.791 4.551-4.551 2.276-7.964 4.551-11.378 7.964s-4.551 6.827-6.827 10.24c-1.138 3.413-2.276 6.827-2.276 10.24 0 2.276 1.138 4.551 2.276 6.827 2.276 2.276 4.551 3.413 6.827 3.413s4.551 0 5.689-1.138c1.138-1.138 2.276-2.276 3.413-4.551 1.138-4.551 2.276-6.827 3.413-9.102s2.276-4.551 4.551-5.689c2.276-2.276 4.551-3.413 7.964-4.551v35.271c-6.827 2.276-12.516 3.413-17.067 5.689s-7.964 5.689-11.378 10.24c-2.276 4.551-4.551 9.102-4.551 15.929 0 9.102 2.276 15.929 7.964 21.618s13.653 9.102 23.893 9.102v11.378c0 4.551 1.138 6.827 4.551 6.827s4.551-2.276 4.551-5.689v-11.378c5.689 0 10.24-1.138 13.653-3.413 3.413-1.138 6.827-4.551 10.24-7.964 2.276-2.276 3.413-5.689 5.689-7.964 1.138-2.276 2.276-5.689 2.276-7.964s-1.138-4.551-2.276-6.827c-2.276-2.276-4.551-2.276-6.827-2.276-4.551 0-7.964 2.276-9.102 7.964-1.138 6.827-5.689 10.24-11.378 12.516v-30.72c5.689-1.138 11.378-3.413 14.791-4.551s6.827-3.413 10.24-5.689c3.413-2.276 5.689-5.689 6.827-10.24 1.138-3.413 2.276-7.964 2.276-12.516-1.138-6.827-2.276-12.516-4.551-17.067zM806.684 261.689c2.276-2.276 4.551-5.689 4.551-10.24s-1.138-7.964-4.551-10.24c-2.276-3.413-6.827-4.551-11.378-5.689v32.996c5.689-2.276 9.102-3.413 11.378-6.827z" />
<glyph unicode="&#xe91c;" glyph-name="astronaut-service" d="M706.56 580.266h-54.613v9.102h54.613v-9.102zM706.56 567.751h-54.613v-9.102h54.613v9.102zM706.56 547.271h-54.613v-9.102h54.613v9.102zM359.538 549.546c0 3.413-3.413 6.827-6.827 6.827s-6.827-3.413-6.827-6.827v-25.031c0-3.413 3.413-6.827 6.827-6.827s6.827 3.413 6.827 6.827v25.031zM395.947 507.449c2.276 0 3.413 1.138 4.551 2.276l18.204 18.204c2.276 2.276 2.276 6.827 0 10.24-2.276 2.276-6.827 2.276-10.24 0l-18.204-18.204c-2.276-2.276-2.276-6.827 0-10.24 2.276-2.276 3.413-2.276 5.689-2.276zM285.582 526.791l18.204-18.204c1.138-1.138 3.413-2.276 4.551-2.276s3.413 1.138 4.551 2.276c2.276 2.276 2.276 6.827 0 10.24l-17.067 18.204c-2.276 2.276-6.827 2.276-10.24 0-2.276-2.276-2.276-6.827 0-10.24zM374.329 399.36h45.511v79.644c0 21.618 5.689 40.96 17.067 59.164-2.276 1.138-3.413 2.276-5.689 3.413v0l-2.276 1.138c-26.169 17.067-46.649 39.822-58.027 67.129 0 0 0 0 0 0-1.138 2.276-2.276 5.689-3.413 7.964 0 0 0 1.138 0 1.138-1.138 2.276-1.138 4.551-2.276 7.964 0 1.138 0 1.138-1.138 2.276-1.138 2.276-1.138 4.551-2.276 6.827 0 1.138 0 2.276-1.138 2.276 0 2.276-1.138 4.551-1.138 6.827 0 1.138 0 2.276 0 3.413 0 2.276 0 4.551-1.138 6.827 0 1.138 0 2.276 0 3.413 0 3.413 0 6.827 0 10.24 0 2.276 0 4.551 0 6.827 0 1.138 0 2.276 0 3.413s0 2.276 0 3.413c0 1.138 0 2.276 0 3.413s0 1.138 0 2.276 0 3.413 1.138 4.551c0 0 0 1.138 0 1.138 2.276 10.24 4.551 20.48 9.102 29.582 0 0 0 0 0 1.138 1.138 1.138 1.138 3.413 2.276 4.551 0 1.138 0 1.138 1.138 2.276s1.138 2.276 2.276 3.413c0 1.138 1.138 2.276 1.138 3.413s1.138 2.276 1.138 2.276 2.276 3.413 2.276 4.551c0 0 0 1.138 0 1.138 3.413 5.689 7.964 11.378 12.516 17.067l2.276 2.276c29.582 32.996 71.68 53.476 118.329 53.476 85.333 0 153.6-67.129 153.6-150.187 0-9.102-1.138-18.204-2.276-26.169h54.613c11.378 0 21.618-9.102 21.618-21.618v-301.511c0-11.378-9.102-21.618-21.618-21.618h-77.369c-2.276 0-4.551 0-6.827 1.138v-230.969h-281.031v40.96c1.138 36.409 30.72 65.991 67.129 65.991 0 0 0 0 1.138 0v142.222h-59.164v13.653c-31.858 4.551-54.613 29.582-54.613 61.44v6.827h67.129zM410.738 752.071c-2.276 0-5.689 0-9.102 0-2.276-2.276-3.413-4.551-5.689-6.827 0 0 0 0 0 0-1.138-1.138-2.276-3.413-3.413-4.551 0 0 0-1.138-1.138-1.138-1.138-1.138-1.138-2.276-2.276-4.551 0 0 0-1.138-1.138-1.138-1.138-1.138-1.138-2.276-1.138-3.413-1.138-2.276-2.276-4.551-3.413-6.827 0 0 0 0 0 0-1.138-1.138-1.138-3.413-2.276-4.551 0 0 0 0 0 0-1.138-1.138-1.138-3.413-2.276-4.551 0 0 0 0 0 0-2.276-6.827-4.551-13.653-5.689-20.48 0 0 0 0 0-1.138s0-2.276-1.138-4.551c0-1.138 0-1.138 0-2.276s0-2.276 0-3.413c0-1.138 0-2.276 0-3.413s0-2.276 0-2.276c0-2.276 0-4.551 0-6.827s0-5.689 0-7.964c0-1.138 0-1.138 0-2.276 0-2.276 0-3.413 0-5.689 0-1.138 0-2.276 0-3.413s0-3.413 1.138-4.551c0-1.138 0-2.276 0-3.413s1.138-3.413 1.138-4.551c0-1.138 0-2.276 1.138-3.413 0-1.138 1.138-3.413 1.138-4.551 1.138-2.276 1.138-4.551 2.276-6.827 0-1.138 0-1.138 1.138-2.276s1.138-3.413 2.276-4.551c0 0 0-1.138 1.138-1.138 1.138-2.276 1.138-3.413 2.276-5.689 0 0 0 0 0 0 7.964-15.929 18.204-29.582 31.858-40.96 0 0 0 0 1.138-1.138s2.276-2.276 4.551-3.413c1.138 0 1.138-1.138 2.276-1.138 1.138-1.138 2.276-2.276 3.413-3.413s2.276-1.138 3.413-2.276c1.138-1.138 1.138-1.138 2.276-2.276 54.613 10.24 96.711 59.164 96.711 117.191 0 28.444-7.964 43.236-13.653 48.924 0 0-1.138 1.138-1.138 1.138v0c-6.827 6.827-34.133 27.307-101.262 27.307-2.276 2.276-2.276 2.276-4.551 2.276zM512 805.546c-37.547 0-71.68-14.791-96.711-38.684 69.404 0 100.124-21.618 110.364-31.858l1.138-1.138c2.276-2.276 2.276-3.413 2.276-3.413 7.964-9.102 17.067-27.307 17.067-58.027 0-59.164-37.547-110.364-92.16-126.293 18.204-7.964 38.684-12.516 59.164-12.516 77.369 0 139.947 61.44 139.947 135.396s-63.716 136.533-141.084 136.533zM620.089 560.924c-3.413-3.413-7.964-6.827-11.378-10.24 4.551-5.689 7.964-11.378 11.378-18.204v28.444zM640.569 312.889h77.369c3.413 0 6.827 3.413 6.827 6.827v301.511c0 3.413-3.413 6.827-6.827 6.827h-58.027c-5.689-19.342-14.791-36.409-26.169-51.2v-257.138c0-3.413 3.413-6.827 6.827-6.827zM620.089 318.577c0 0 0 1.138 0 1.138v162.702c-1.138 22.756-9.102 43.236-22.756 60.302-23.893-15.929-53.476-23.893-84.196-23.893-22.756 0-43.236 4.551-62.578 13.653-10.24-15.929-15.929-34.133-15.929-52.338v-79.644h38.684v60.302c0 26.169 21.618 46.649 46.649 46.649s46.649-21.618 46.649-46.649v-94.436c0-26.169-21.618-46.649-46.649-46.649h-86.471v-143.36c3.413-1.138 6.827-1.138 9.102-3.413 7.964 3.413 15.929 4.551 23.893 4.551 0 0 1.138 0 1.138 0v112.64h14.791v-114.916c27.307-6.827 47.787-30.72 50.062-60.302h85.333v203.662zM414.151 81.92h205.938v17.067h-205.938v-17.067zM440.32 113.777h80.782c-2.276 21.618-17.067 38.684-36.409 45.511-2.276 1.138-4.551 1.138-7.964 2.276-2.276 0-4.551 1.138-7.964 1.138 0 0-1.138 0-1.138 0-2.276 0-4.551 0-6.827 0-5.689-1.138-11.378-2.276-17.067-5.689-15.929-7.964-27.307-23.893-29.582-42.098h26.169zM368.64 81.92h29.582v17.067h-29.582v-17.067zM419.84 161.564c-27.307 0-50.062-21.618-53.476-48.924h34.133c2.276 19.342 11.378 36.409 26.169 47.787-2.276 1.138-4.551 1.138-6.827 1.138zM374.329 332.231h145.636c18.204 0 32.996 14.791 32.996 32.996v94.436c0 18.204-14.791 32.996-32.996 32.996s-32.996-14.791-32.996-32.996v-73.956h-112.64v-53.476zM360.676 344.746v39.822h-39.822c3.413-19.342 19.342-35.271 39.822-39.822zM381.156 493.795l15.929-23.893c1.138-1.138 1.138-2.276 0-3.413l-42.098-54.613c-1.138-2.276-2.276-2.276-2.276-2.276-1.138 0-2.276 0-2.276 1.138l-43.236 54.613c0 1.138 0 3.413 0 4.551l15.929 23.893c1.138 1.138 1.138 1.138 2.276 1.138h52.338c1.138 0 2.276 0 3.413-1.138zM384.569 464.213h-18.204l-10.24-36.409 28.444 36.409zM352.711 424.391l11.378 39.822h-22.756l11.378-39.822zM348.16 428.942l-10.24 36.409h-18.204l28.444-36.409zM319.716 467.626h17.067l-6.827 14.791-10.24-14.791zM332.231 484.693l6.827-14.791 9.102 14.791h-15.929zM342.471 467.626h20.48l-10.24 15.929-10.24-15.929zM356.124 484.693l9.102-14.791 6.827 14.791h-15.929zM367.502 467.626h17.067l-10.24 14.791-6.827-14.791z" />
<glyph unicode="&#xe91d;" glyph-name="astronaut-urgency" d="M805.547 589.369c0-4.551-3.413-6.827-6.827-6.827h-56.889c-4.551 0-7.964 3.413-7.964 6.827 0 4.551 3.413 7.964 7.964 7.964h56.889c3.413 0 6.827-3.413 6.827-7.964zM798.72 574.577h-56.889c-4.551 0-7.964-3.413-7.964-6.827 0-4.551 3.413-7.964 7.964-7.964h56.889c4.551 0 6.827 3.413 6.827 7.964 0 3.413-3.413 6.827-6.827 6.827zM798.72 551.822h-56.889c-4.551 0-7.964-3.413-7.964-7.964s3.413-6.827 7.964-6.827h56.889c4.551 0 6.827 3.413 6.827 6.827 0 4.551-3.413 7.964-6.827 7.964zM650.809 469.902v-154.738h-13.653v-60.302h-10.24c-34.133 1.138-61.44 27.307-65.991 60.302h-9.102v154.738c0 27.307 22.756 50.062 50.062 50.062s48.924-22.756 48.924-50.062zM616.676 312.889h-35.271c3.413-18.204 18.204-31.858 35.271-36.409v36.409zM566.613 469.902v-137.671h69.404v137.671c0 19.342-15.929 35.271-35.271 35.271s-34.133-15.929-34.133-35.271zM832.853 636.017v-307.2c0-14.791-12.516-27.307-27.307-27.307h-71.68c-4.551 0-9.102 1.138-13.653 3.413v-75.093c-3.413-13.653-15.929-31.858-52.338-36.409h-205.938v-158.151h-268.516v44.373c1.138 38.684 32.996 70.542 70.542 70.542 9.102 0 17.067-2.276 25.031-4.551 6.827 2.276 13.653 4.551 21.618 4.551v120.604c0 39.822 38.684 51.2 59.164 51.2h36.409c35.271 0 76.231 0 92.16 0v170.667c0 22.756 6.827 43.236 18.204 62.578-6.827 3.413-12.516 7.964-18.204 12.516-70.542 54.613-84.196 155.876-30.72 224.142 37.547 47.787 97.849 69.404 158.151 56.889 25.031-5.689 46.649-15.929 67.129-31.858 34.133-26.169 55.751-64.853 61.44-106.951 2.276-15.929 2.276-30.72 0-45.511h53.476c12.516-1.138 25.031-13.653 25.031-28.444zM461.938 720.213c0-4.551 7.964-5.689 10.24-6.827 14.791-3.413 39.822 0 60.302 10.24-18.204 14.791-30.72 30.72-11.378 31.858 31.858 2.276 35.271 17.067 36.409 27.307-10.24 19.342-31.858 29.582-39.822 32.996-12.516-7.964-61.44-47.787-55.751-95.573zM321.991 149.049c6.827-1.138 12.516-3.413 18.204-5.689v124.018c0 18.204 6.827 30.72 15.929 38.684-13.653-2.276-35.271-10.24-35.271-36.409v-120.604zM256 84.195h112.64c0 1.138 0 2.276 0 2.276-2.276 10.24-6.827 20.48-12.516 28.444-3.413 4.551-7.964 9.102-13.653 11.378-5.689 3.413-12.516 5.689-18.204 6.827-3.413 1.138-6.827 1.138-10.24 1.138-1.138 0-2.276 0-3.413 0s-2.276 0-3.413 0c-6.827-1.138-12.516-3.413-18.204-5.689-18.204-7.964-30.72-25.031-32.996-44.373zM238.933 69.404h-30.72v-18.204h30.72v18.204zM242.347 84.195c2.276 20.48 12.516 38.684 27.307 50.062-2.276 0-4.551 1.138-7.964 1.138-28.444 0-52.338-22.756-55.751-51.2h36.409zM446.009 69.404h-188.871v-18.204h188.871v18.204zM707.698 323.129c0 2.276-1.138 3.413-1.138 5.689v174.080c-2.276 19.342-10.24 38.684-22.756 54.613-34.133-22.756-77.369-30.72-120.604-22.756-12.516 2.276-25.031 6.827-36.409 12.516-10.24-17.067-17.067-36.409-17.067-56.889v-183.182h-6.827v-1.138c-4.551 0-105.813 0-117.191 0 0 0-32.996-6.827-32.996-39.822v-133.12c14.791-11.378 25.031-28.444 27.307-48.924h65.991v122.88h221.867c21.618 2.276 35.271 11.378 39.822 26.169v89.884zM706.56 547.271v28.444c-3.413-3.413-7.964-6.827-11.378-10.24 4.551-5.689 7.964-11.378 11.378-18.204zM738.418 707.697c-5.689 38.684-25.031 72.818-56.889 96.711-18.204 13.653-38.684 23.893-61.44 28.444-18.204 3.413-37.547 3.413-54.613 1.138 3.413-2.276 4.551-3.413 4.551-3.413 56.889-44.373 67.129-81.92 69.404-93.298 0 0 0-1.138 0-1.138 0-2.276 0-3.413 0-3.413 0-7.964-1.138-27.307-22.756-54.613-38.684-48.924-103.538-63.716-157.013-39.822 9.102-22.756 25.031-43.236 45.511-59.164 18.204-13.653 38.684-23.893 61.44-28.444 54.613-11.378 109.227 7.964 143.36 51.2 22.756 29.582 32.996 67.129 28.444 105.813zM818.062 636.017c0 6.827-5.689 12.516-12.516 12.516h-56.889c-5.689-20.48-14.791-39.822-27.307-56.889v-262.827c0-6.827 5.689-12.516 12.516-12.516h71.68c6.827 0 12.516 5.689 12.516 12.516v307.2z" />
<glyph unicode="&#xe91e;" glyph-name="astronaut-sleep" d="M932.978 812.373c-5.689 61.44-56.889 108.089-119.467 108.089-35.271 0-69.404-15.929-92.16-43.236-6.827 1.138-12.516 1.138-19.342 1.138-65.991 0-118.329-53.476-118.329-118.329 0-11.378 1.138-21.618 4.551-32.996-14.791-17.067-23.893-38.684-23.893-62.578 0-52.338 42.098-94.436 94.436-94.436 7.964 0 17.067 1.138 25.031 3.413 23.893-30.72 60.302-48.924 98.987-48.924 60.302 0 110.364 42.098 121.742 100.124 44.373 12.516 76.231 53.476 76.231 98.987 1.138 36.409-17.067 69.404-47.787 88.747zM897.707 638.293l-4.551-1.138-1.138-4.551c-9.102-53.476-54.613-92.16-108.089-92.16-35.271 0-69.404 17.067-89.884 46.649l-3.413 4.551-5.689-2.276c-7.964-2.276-17.067-4.551-25.031-4.551-44.373 0-79.644 35.271-79.644 79.644 0 20.48 7.964 39.822 22.756 54.613l3.413 3.413-2.276 5.689c-3.413 10.24-5.689 21.618-5.689 31.858 0 56.889 46.649 103.538 103.538 103.538 6.827 0 13.653-1.138 20.48-2.276h5.689l2.276 3.413c20.48 26.169 50.062 40.96 83.058 40.96 55.751 0 101.262-43.236 104.676-97.849v-4.551l3.413-2.276c27.307-15.929 44.373-45.511 44.373-76.231 1.138-40.96-28.444-77.369-68.267-86.471zM452.836 735.004c-2.276-7.964-2.276-15.929 2.276-23.893 5.689-10.24 15.929-15.929 27.307-15.929 1.138 0 3.413 0 4.551 0 4.551-3.413 10.24-5.689 17.067-5.689 4.551 0 7.964 1.138 12.516 3.413 6.827 3.413 12.516 10.24 13.653 18.204 11.378 9.102 14.791 23.893 7.964 36.409-3.413 6.827-9.102 11.378-17.067 14.791 0 0 0 1.138-1.138 1.138-4.551 10.24-14.791 15.929-26.169 15.929-4.551 0-9.102-1.138-13.653-3.413-1.138-1.138-3.413-1.138-4.551-2.276-4.551 0-9.102 0-13.653-2.276-12.516-5.689-17.067-20.48-10.24-32.996 0-2.276 1.138-3.413 1.138-3.413zM468.764 756.622c2.276 1.138 4.551 1.138 6.827 1.138l4.551-1.138 3.413 3.413c1.138 1.138 2.276 2.276 3.413 2.276 2.276 1.138 4.551 1.138 6.827 1.138 5.689 0 10.24-3.413 12.516-7.964 0-1.138 1.138-2.276 1.138-2.276l1.138-4.551 4.551-1.138c4.551-1.138 7.964-3.413 10.24-7.964 3.413-6.827 1.138-14.791-5.689-19.342l-3.413-2.276v-4.551c0-4.551-2.276-7.964-5.689-9.102-4.551-2.276-10.24-1.138-13.653 2.276l-3.413 3.413-4.551-1.138c-1.138 0-3.413-1.138-4.551-1.138-5.689 0-11.378 3.413-13.653 7.964s-2.276 10.24 0 14.791l2.276 4.551-4.551 6.827c-1.138 1.138-1.138 1.138-2.276 2.276-1.138 4.551 0 10.24 4.551 12.516zM512 341.333c0 40.96-17.067 77.369-44.373 106.951 11.378 3.413 21.618 6.827 30.72 11.378 7.964-3.413 28.444-11.378 39.822 0s4.551 30.72 0 39.822c6.827 17.067 11.378 39.822 11.378 63.716s-3.413 46.649-11.378 63.716c3.413 7.964 11.378 28.444 0 39.822s-30.72 3.413-39.822 0c-27.307 12.516-61.44 20.48-98.987 22.756-25.031 15.929-54.613 25.031-87.609 25.031-31.858 0-62.578-9.102-87.609-25.031-36.409-2.276-71.68-10.24-98.987-22.756-7.964 3.413-28.444 11.378-39.822 0s-3.413-30.72 0-39.822c-6.827-17.067-11.378-39.822-11.378-63.716s3.413-46.649 11.378-63.716c-3.413-7.964-11.378-28.444 0-39.822s30.72-3.413 39.822 0c9.102-4.551 19.342-7.964 30.72-11.378-28.444-29.582-44.373-65.991-44.373-106.951v-51.2h-69.404v-14.791h70.542v-130.844h11.378c3.413-30.72 27.307-53.476 56.889-56.889v-120.604h14.791v308.338h235.52v-308.338h14.791v120.604c29.582 3.413 53.476 27.307 56.889 56.889h11.378v130.844h70.542v14.791h-72.818v51.2zM494.933 650.809l3.413-1.138 3.413 2.276c7.964 4.551 21.618 7.964 26.169 4.551 3.413-3.413 1.138-15.929-4.551-26.169l-2.276-4.551 2.276-3.413c6.827-15.929 11.378-37.547 11.378-60.302s-4.551-45.511-11.378-60.302l-1.138-3.413 1.138-3.413c4.551-7.964 7.964-21.618 4.551-26.169-3.413-3.413-18.204 0-26.169 4.551l-3.413 2.276-3.413-1.138c-11.378-5.689-25.031-11.378-39.822-14.791-3.413 3.413-7.964 6.827-11.378 9.102 4.551 6.827 9.102 14.791 13.653 21.618l12.516-12.516c1.138-1.138 2.276-1.138 3.413-1.138s2.276 0 3.413 1.138c2.276 2.276 2.276 5.689 0 6.827l-15.929 15.929c6.827 15.929 10.24 34.133 11.378 52.338h21.618c2.276 0 4.551 2.276 4.551 4.551s-2.276 4.551-4.551 4.551h-21.618c-1.138 18.204-4.551 36.409-11.378 52.338l14.791 14.791c2.276 2.276 2.276 5.689 0 6.827-2.276 2.276-5.689 2.276-6.827 0l-12.516-10.24c-9.102 17.067-20.48 32.996-34.133 45.511 27.307-3.413 52.338-10.24 72.818-20.48zM312.889 699.733c79.644 0 144.498-63.716 144.498-141.084s-64.853-141.084-144.498-141.084-144.498 63.716-144.498 141.084 64.853 141.084 144.498 141.084zM130.844 474.453l-3.413 1.138-3.413-2.276c-7.964-4.551-21.618-7.964-26.169-4.551-3.413 3.413 0 17.067 4.551 26.169l2.276 3.413-2.276 4.551c-6.827 15.929-11.378 37.547-11.378 60.302s4.551 45.511 11.378 60.302l1.138 2.276-1.138 3.413c-4.551 7.964-7.964 21.618-4.551 26.169 3.413 3.413 18.204 0 26.169-4.551l3.413-2.276 3.413 1.138c20.48 10.24 45.511 17.067 72.818 21.618-14.791-13.653-26.169-28.444-35.271-46.649l-12.516 12.516c-2.276 2.276-5.689 2.276-6.827 0-2.276-2.276-2.276-5.689 0-6.827l14.791-14.791c-6.827-15.929-10.24-34.133-11.378-52.338h-21.618c-2.276 0-4.551-2.276-4.551-4.551s2.276-4.551 4.551-4.551h21.618c1.138-18.204 4.551-36.409 11.378-52.338l-14.791-14.791c-2.276-2.276-2.276-5.689 0-6.827 1.138-1.138 2.276-1.138 3.413-1.138s2.276 0 3.413 1.138l12.516 12.516c3.413-7.964 7.964-14.791 13.653-21.618-4.551-3.413-7.964-5.689-11.378-9.102-14.791 1.138-28.444 5.689-39.822 12.516zM180.907 102.4c-21.618 3.413-37.547 19.342-42.098 40.96h42.098v-40.96zM360.676 290.133h-20.48v5.689h-55.751v-5.689h-18.204v44.373h95.573v-44.373zM444.871 102.4v40.96h42.098c-4.551-21.618-20.48-38.684-42.098-40.96zM498.347 159.289h-53.476v169.529h-14.791v-38.684h-54.613v59.164h-125.156v-59.164h-55.751v38.684h-14.791v-169.529h-53.476v182.044c0 46.649 25.031 88.747 63.716 117.191 29.582-34.133 72.818-54.613 121.742-54.613s92.16 21.618 121.742 54.613c38.684-28.444 63.716-70.542 63.716-117.191v-182.044zM339.058 309.475h-55.751v9.102h55.751v-9.102zM286.72 538.169h-26.169v5.689l9.102 11.378c1.138 2.276 3.413 3.413 4.551 5.689v0h-12.516v6.827h23.893v-5.689l-9.102-11.378c-1.138-2.276-3.413-3.413-4.551-5.689v0h13.653v-6.827zM324.267 538.169h-31.858v4.551l19.342 28.444h-17.067v7.964h29.582v-5.689l-19.342-27.307h19.342v-7.964zM357.262 538.169h-26.169v5.689l9.102 11.378c1.138 2.276 3.413 3.413 4.551 5.689v0h-12.516v6.827h23.893v-5.689l-9.102-11.378c-1.138-2.276-3.413-3.413-4.551-5.689v0h13.653v-6.827zM312.889 432.355c0 0 0 0 0 0s0 0 0 0c71.68 0 128.569 58.027 128.569 130.844 0 34.133-10.24 50.062-15.929 55.751-20.48 31.858-94.436 34.133-110.364 34.133-2.276 0-3.413 0-3.413 0-71.68 0-101.262-22.756-110.364-30.72 0 0 0 0-1.138-1.138s-2.276-2.276-2.276-2.276c-4.551-5.689-15.929-21.618-15.929-55.751 2.276-72.818 59.164-130.844 130.844-130.844zM210.489 608.711v0 0c0 0 1.138 1.138 1.138 1.138v0c6.827 5.689 32.996 26.169 100.124 26.169v0 0c0 0 1.138 0 2.276 0 39.822 0 86.471-7.964 97.849-27.307v-2.276c4.551-5.689 12.516-19.342 12.516-46.649 0-63.716-51.2-114.916-113.778-114.916v0 0 0 0c-62.578 0-113.778 52.338-113.778 114.916 2.276 30.72 9.102 43.236 13.653 48.924zM243.484 217.315l-6.827 5.689c0 0 0 0 0 1.138 0 0 0 0 1.138 0h9.102l3.413 7.964c0 0 0 0 1.138 0 0 0 1.138 0 1.138 0l3.413-7.964h9.102c0 0 1.138 0 1.138 0s0-1.138 0-1.138l-6.827-5.689 2.276-7.964c0 0 0-1.138 0-1.138s0 0 0 0 0 0 0 0l-6.827 4.551-6.827-4.551c0 0-1.138 0-1.138 0s0 0 0 1.138l-3.413 7.964zM515.413 45.511c0 0 0-1.138 0-1.138l-11.378-7.964 4.551-13.653c0 0 0-1.138 0-1.138s0 0-1.138 0c0 0 0 0-1.138 0l-11.378 7.964-11.378-7.964c0 0-1.138 0-1.138 0s-1.138 1.138 0 1.138l4.551 13.653-11.378 7.964c0 0-1.138 1.138 0 1.138 0 0 1.138 1.138 1.138 1.138h13.653l4.551 12.516c0 0 1.138 1.138 1.138 1.138s1.138 0 1.138-1.138l4.551-12.516h13.653c0 0 0 0 0-1.138zM278.756 64.853c0 0 0-1.138 0-1.138l-11.378-7.964 4.551-13.653c0 0 0-1.138 0-1.138s0 0-1.138 0c0 0 0 0-1.138 0l-11.378 7.964-11.378-7.964c0 0-1.138 0-1.138 0s-1.138 1.138 0 1.138l4.551 13.653-11.378 7.964c0 0-1.138 1.138 0 1.138 0 0 1.138 1.138 1.138 1.138h13.653l4.551 12.516c0 0 1.138 1.138 1.138 1.138s1.138 0 1.138-1.138l4.551-12.516h13.653c-1.138 0 0 0 0-1.138zM341.333 170.666c0 0 0-1.138 0 0 0-1.138-1.138-1.138-1.138-1.138s0 0 0 0l-9.102 5.689-9.102-5.689c0 0-1.138 0-1.138 0s0 1.138 0 1.138l3.413 10.24-7.964 6.827c0 0 0 1.138 0 1.138s0 1.138 1.138 1.138h10.24l3.413 10.24c0 0 0 1.138 1.138 1.138 0 0 1.138 0 1.138-1.138l3.413-10.24h10.24c0 0 1.138 0 1.138-1.138 0 0 0-1.138 0-1.138l-7.964-6.827 1.138-10.24zM411.876 1.137c0 0 0 0 0 0l-9.102-6.827 3.413-10.24c0 0 0-1.138 0-1.138s0 0 0 0 0 0 0 0l-9.102 5.689-9.102-5.689c0 0-1.138 0-1.138 0s0 1.138 0 1.138l3.413 10.24-7.964 6.827c0 0 0 1.138 0 1.138s0 1.138 1.138 1.138h10.24l3.413 10.24c0 0 0 1.138 1.138 1.138 0 0 1.138 0 1.138-1.138l3.413-10.24 9.102-2.276c0 1.138 0 1.138 0 0zM93.298 122.88c0 0 0-1.138 0 0l-6.827-5.689 2.276-7.964c0 0 0-1.138 0-1.138s0 0 0 0 0 0 0 0l-6.827 4.551-6.827-4.551c0 0-1.138 0-1.138 0s0 0 0 1.138l2.276 7.964-7.964 4.551c0 0 0 0 0 1.138 0 0 0 0 1.138 0h7.964l2.276 9.102c0 0 0 0 1.138 0s1.138 0 1.138 0l2.276-7.964 9.102-1.138c-1.138 0 0 0 0 0zM563.2 125.155c1.138 0 0 0 0 0l-9.102-6.827 3.413-10.24c0 0 0-1.138 0-1.138s0 0 0 0 0 0 0 0l-9.102 5.689-9.102-5.689c0 0-1.138 0-1.138 0s0 1.138 0 1.138l3.413 10.24-7.964 6.827c0 0 0 1.138 0 1.138s0 1.138 1.138 1.138h10.24l3.413 10.24c0 0 0 1.138 1.138 1.138 0 0 1.138 0 1.138-1.138l3.413-10.24 9.102-2.276c0 1.138 0 1.138 0 0zM158.151 31.857c0-1.138 0-1.138 0 0l-9.102-6.827 3.413-10.24c0 0 0-1.138 0-1.138s0 0 0 0 0 0 0 0l-9.102 5.689-9.102-5.689c0 0-1.138 0-1.138 0s0 1.138 0 1.138l3.413 10.24-7.964 6.827c0 0 0 1.138 0 1.138s0 1.138 1.138 1.138h10.24l3.413 10.24c0 0 0 1.138 1.138 1.138 0 0 1.138 0 1.138-1.138l3.413-10.24 9.102-2.276c-1.138 0 0 0 0 0zM373.191 100.124c0-1.138 0-1.138 0 0l-9.102-7.964 3.413-10.24c0 0 0-1.138 0-1.138s0 0 0 0 0 0 0 0l-9.102 5.689-9.102-5.689c0 0-1.138 0-1.138 0s0 1.138 0 1.138l3.413 10.24-10.24 6.827c0 0 0 1.138 0 1.138s0 1.138 1.138 1.138h10.24l3.413 10.24c0 0 0 1.138 1.138 1.138 0 0 1.138 0 1.138-1.138l3.413-10.24 11.378-1.138c-1.138 0-1.138 0 0 0z" />
<glyph unicode="&#xe91f;" glyph-name="astronaut-wait" d="M451.698 507.449c0 0 0 0 0 0s0 0 0 0c68.267 0 124.018 55.751 124.018 125.156 0 32.996-10.24 47.787-14.791 53.476-19.342 30.72-91.022 32.996-105.813 32.996-2.276 0-3.413 0-3.413 0-69.404 0-97.849-21.618-105.813-29.582 0 0 0 0-1.138-1.138s-2.276-2.276-2.276-2.276c-4.551-5.689-14.791-21.618-14.791-53.476 0-69.404 55.751-125.156 124.018-125.156zM353.849 676.977v0 0c0 0 1.138 1.138 1.138 1.138v0c6.827 5.689 31.858 26.169 96.711 26.169v0 0c0 0 1.138 0 2.276 0 38.684 0 83.058-7.964 94.436-26.169v-2.276c4.551-5.689 11.378-18.204 11.378-44.373 0-61.44-48.924-111.502-109.227-111.502v0 0 0 0c-60.302 0-109.227 50.062-109.227 111.502 1.138 27.307 7.964 40.96 12.516 45.511zM481.28 387.982h-54.613v10.24h54.613v-10.24zM582.542 260.551v0 26.169c32.996 2.276 59.164 29.582 61.44 62.578v69.404c0 48.924-26.169 93.298-65.991 122.88 18.204 23.893 28.444 54.613 28.444 86.471 0 83.058-69.404 150.187-153.6 150.187s-153.6-67.129-153.6-150.187c0-31.858 10.24-61.44 28.444-86.471-40.96-29.582-67.129-73.956-67.129-122.88v-69.404c1.138-18.204 9.102-34.133 22.756-45.511-3.413-1.138-6.827-2.276-10.24-4.551l-7.964-3.413-28.444-13.653 5.689-13.653h1.138l40.96-79.644h-103.538v-14.791h111.502l5.689-11.378 22.756 11.378h7.964v-145.636h134.258v145.636h295.822v14.791h-216.178c23.893 14.791 39.822 40.96 39.822 71.68zM312.889 629.191c0 75.093 62.578 135.396 139.947 135.396s138.809-61.44 138.809-135.396-62.578-135.396-139.947-135.396-138.809 60.302-138.809 135.396zM273.067 352.711v67.129c0 44.373 23.893 85.333 61.44 112.64 28.444-31.858 70.542-52.338 117.191-52.338s88.747 20.48 117.191 52.338c37.547-27.307 61.44-67.129 61.44-112.64v-67.129c-1.138-28.444-23.893-51.2-52.338-51.2v0h-9.102v-17.067l-48.924 76.231h63.716v52.338h-14.791v-37.547h-52.338v53.476h-120.604v-53.476h-52.338v37.547h-14.791v-52.338h88.747l-117.191-51.2c-15.929 7.964-26.169 23.893-27.307 43.236zM501.76 413.013v-25.031l-4.551 6.827-44.373-19.342h-25.031v-1.138h-18.204v38.684h92.16zM302.649 183.182l-45.511 91.022 15.929 6.827 45.511-91.022-15.929-6.827zM332.231 195.697l-1.138-1.138-45.511 91.022 14.791 6.827c20.48 1.138 40.96-9.102 51.2-28.444 11.378-23.893 3.413-52.338-19.342-68.267zM395.947 136.533c-21.618 0-40.96-10.24-53.476-27.307v75.093l97.849 42.098 7.964-17.067v-98.987c-12.516 15.929-31.858 26.169-52.338 26.169zM448.284 76.231v-2.276h-105.813c3.413 27.307 26.169 48.924 52.338 48.924 27.307 0 48.924-20.48 53.476-46.649zM448.284 42.097h-106.951v17.067h106.951v-17.067zM469.902 188.871v0h-6.827v23.893l-15.929 32.996-85.333-36.409c10.24 19.342 11.378 42.098 1.138 61.44-7.964 15.929-22.756 27.307-38.684 32.996l167.253 72.818 77.369-120.604c-2.276-36.409-31.858-64.853-69.404-67.129h-29.582zM732.729 859.022c-61.44 0-111.502-50.062-111.502-111.502s50.062-111.502 111.502-111.502c61.44 0 111.502 50.062 111.502 111.502s-50.062 111.502-111.502 111.502zM732.729 650.809c-53.476 0-96.711 43.236-96.711 96.711s43.236 96.711 96.711 96.711c53.476 0 96.711-43.236 96.711-96.711s-43.236-96.711-96.711-96.711zM782.791 742.969c0-4.551-3.413-7.964-7.964-7.964h-44.373c-3.413 0-6.827 2.276-7.964 4.551-1.138 1.138-1.138 2.276-1.138 3.413v65.991c0 3.413 3.413 6.827 6.827 6.827s6.827-3.413 6.827-6.827v-58.027h40.96c3.413 1.138 6.827-2.276 6.827-7.964z" />
<glyph unicode="&#xe920;" glyph-name="params" d="M256 763.061v96.672c0 52.928-43.072 96-96 96s-96-43.072-96-96v-96.672c-38.656-29.28-64-75.136-64-127.328s25.344-98.048 64-127.264v-480.736c0-52.928 43.072-96 96-96s96 43.072 96 96v480.736c38.656 29.184 64 75.072 64 127.264s-25.344 98.048-64 127.328zM128 859.733c0 17.696 14.304 32 32 32s32-14.304 32-32v-67.2c-10.336 2.080-21.024 3.2-32 3.2s-21.664-1.12-32-3.2v67.2zM192 27.733c0-17.696-14.304-32-32-32s-32 14.304-32 32v451.264c10.336-2.144 21.024-3.264 32-3.264s21.664 1.12 32 3.264v-451.264zM251.68 608.853c-0.512-1.696-0.96-3.36-1.568-5.056-3.040-8.448-6.944-16.448-12.096-23.552-0.128-0.192-0.32-0.32-0.448-0.512-5.568-7.616-12.192-14.368-19.712-20.064-0.128-0.128-0.224-0.192-0.32-0.256-7.712-5.824-16.32-10.496-25.568-13.76-10.016-3.616-20.672-5.92-31.968-5.92s-21.952 2.304-32 5.952c-9.248 3.264-17.856 7.936-25.568 13.76-0.096 0.064-0.192 0.128-0.32 0.256-7.52 5.696-14.144 12.448-19.712 20.064-0.128 0.192-0.32 0.32-0.448 0.512-5.152 7.136-9.056 15.136-12.096 23.552-0.608 1.696-1.056 3.36-1.568 5.056-2.528 8.544-4.288 17.472-4.288 26.848 0 9.44 1.76 18.368 4.32 26.944 0.512 1.696 0.96 3.36 1.568 4.992 3.008 8.448 6.912 16.448 12.096 23.616 0.128 0.192 0.32 0.32 0.448 0.512 5.568 7.552 12.192 14.368 19.712 20.064 0.128 0.064 0.224 0.192 0.32 0.256 7.68 5.728 16.288 10.432 25.536 13.728 10.048 3.584 20.704 5.888 32 5.888s21.952-2.304 32-5.888c9.248-3.328 17.856-8 25.568-13.76 0.096-0.064 0.192-0.192 0.32-0.256 7.52-5.696 14.144-12.512 19.712-20.064 0.128-0.192 0.32-0.32 0.448-0.512 5.152-7.136 9.056-15.136 12.064-23.584 0.608-1.632 1.088-3.296 1.568-4.992 2.56-8.576 4.32-17.504 4.32-26.944 0-9.376-1.76-18.304-4.32-26.88zM960 763.061v96.672c0 52.928-43.072 96-96 96s-96-43.072-96-96v-96.672c-38.688-29.28-64-75.136-64-127.328s25.312-98.048 64-127.264v-480.736c0-52.928 43.072-96 96-96s96 43.072 96 96v480.736c38.624 29.184 64 75.072 64 127.264s-25.376 98.048-64 127.328zM832 859.733c0 17.696 14.304 32 32 32s32-14.304 32-32v-67.2c-10.368 2.080-21.056 3.2-32 3.2-11.008 0-21.696-1.12-32-3.2v67.2zM896 27.733c0-17.696-14.304-32-32-32s-32 14.304-32 32v451.264c10.304-2.144 20.992-3.264 32-3.264 10.944 0 21.632 1.12 32 3.264v-451.264zM955.68 608.853c-0.512-1.696-0.992-3.36-1.568-5.056-3.072-8.448-6.944-16.448-12.128-23.552-0.128-0.192-0.32-0.32-0.448-0.512-5.568-7.616-12.192-14.368-19.68-20.064-0.128-0.128-0.256-0.192-0.32-0.256-7.744-5.824-16.32-10.496-25.568-13.76-10.016-3.616-20.704-5.92-31.968-5.92-11.328 0-21.952 2.304-32 5.952-9.248 3.264-17.888 7.936-25.568 13.76-0.128 0.064-0.192 0.128-0.32 0.256-7.552 5.696-14.176 12.448-19.744 20.064-0.128 0.192-0.32 0.32-0.448 0.512-5.12 7.136-9.056 15.136-12.064 23.552-0.64 1.696-1.056 3.36-1.568 5.056-2.528 8.544-4.288 17.472-4.288 26.848 0 9.44 1.76 18.368 4.32 26.944 0.512 1.696 0.928 3.36 1.568 4.992 3.008 8.448 6.944 16.448 12.064 23.616 0.128 0.192 0.32 0.32 0.448 0.512 5.568 7.552 12.192 14.368 19.744 20.064 0.128 0.064 0.192 0.192 0.32 0.256 7.68 5.76 16.32 10.432 25.568 13.76 10.016 3.552 20.64 5.856 31.968 5.856 11.264 0 21.952-2.304 32-5.888 9.248-3.328 17.824-8 25.568-13.76 0.064-0.064 0.192-0.192 0.32-0.256 7.488-5.696 14.112-12.512 19.68-20.064 0.128-0.192 0.32-0.32 0.448-0.512 5.184-7.2 9.056-15.2 12.128-23.616 0.576-1.632 1.056-3.328 1.568-4.992 2.528-8.544 4.288-17.472 4.288-26.912 0-9.376-1.76-18.304-4.32-26.88zM608 379.061v480.672c0 52.928-43.072 96-96 96s-96-43.072-96-96v-480.672c-38.656-29.248-64-75.136-64-127.328s25.344-98.048 64-127.264v-96.736c0-52.928 43.072-96 96-96s96 43.072 96 96v96.736c38.624 29.184 64 75.072 64 127.264s-25.376 98.048-64 127.328zM480 859.733c0 17.696 14.304 32 32 32s32-14.304 32-32v-451.2c-10.368 2.048-21.056 3.2-32 3.2-10.976 0-21.664-1.12-32-3.2v451.2zM544 27.733c0-17.696-14.304-32-32-32s-32 14.304-32 32v67.264c10.336-2.144 21.024-3.264 32-3.264 10.944 0 21.632 1.12 32 3.264v-67.264zM603.68 224.853c-0.512-1.696-0.992-3.36-1.568-5.056-3.072-8.448-6.944-16.448-12.128-23.552-0.128-0.192-0.32-0.32-0.448-0.512-5.568-7.616-12.192-14.368-19.68-20.064-0.128-0.128-0.256-0.192-0.32-0.256-7.744-5.824-16.32-10.496-25.568-13.76-10.016-3.616-20.704-5.92-31.968-5.92-11.296 0-21.952 2.304-32 5.952-9.248 3.264-17.856 7.936-25.568 13.76-0.096 0.064-0.192 0.128-0.32 0.256-7.52 5.696-14.144 12.448-19.712 20.064-0.128 0.192-0.32 0.32-0.448 0.512-5.152 7.136-9.056 15.136-12.096 23.552-0.608 1.696-1.056 3.36-1.568 5.056-2.528 8.544-4.288 17.472-4.288 26.848 0 9.44 1.76 18.368 4.32 26.944 0.512 1.696 0.96 3.36 1.568 4.992 3.040 8.448 6.944 16.448 12.096 23.616 0.128 0.192 0.32 0.32 0.448 0.512 5.568 7.552 12.192 14.368 19.712 20.064 0.128 0.064 0.224 0.192 0.32 0.256 7.712 5.76 16.32 10.432 25.568 13.76 10.016 3.552 20.672 5.856 31.968 5.856 11.264 0 21.952-2.304 32-5.888 9.248-3.328 17.824-8 25.568-13.76 0.064-0.064 0.192-0.192 0.32-0.256 7.488-5.696 14.112-12.512 19.68-20.064 0.128-0.192 0.32-0.32 0.448-0.512 5.184-7.2 9.056-15.2 12.128-23.616 0.576-1.632 1.056-3.328 1.568-4.992 2.528-8.544 4.288-17.472 4.288-26.912 0-9.376-1.76-18.304-4.32-26.88z" />
<glyph unicode="&#xe921;" glyph-name="trash" d="M959.36 737.525c-3.072 50.24-44.384 90.112-95.36 90.112h-96v32.064c0 53.024-43.008 96-96 96h-320c-53.024 0-96-42.976-96-96v-32.032h-96c-51.040 0-92.32-39.872-95.392-90.112h-0.608v-69.856c0-35.328 28.672-64 64-64v0-544c0-70.688 57.312-128 128-128h512c70.688 0 128 57.312 128 128v544c35.328 0 64 28.672 64 64v69.824h-0.64zM320 859.669c0 17.696 14.304 32 32 32h320c17.696 0 32-14.304 32-32v-32h-384v32zM832 59.669c0-35.264-28.736-64-64-64h-512c-35.296 0-64 28.736-64 64v544h640v-544zM896 699.701v-32h-768v63.968c0 17.696 14.304 32 32 32h704c17.696 0 32-14.304 32-32v-31.968zM288 59.541h64c17.696 0 32 14.304 32 32v416c0 17.696-14.304 32-32 32h-64c-17.696 0-32-14.304-32-32v-416c0-17.696 14.304-32 32-32zM288 507.573h64v-416h-64v416zM480 59.541h64c17.696 0 32 14.304 32 32v416c0 17.696-14.304 32-32 32h-64c-17.696 0-32-14.304-32-32v-416c0-17.696 14.304-32 32-32zM480 507.573h64v-416h-64v416zM672 59.541h64c17.696 0 32 14.304 32 32v416c0 17.696-14.304 32-32 32h-64c-17.696 0-32-14.304-32-32v-416c0-17.696 14.304-32 32-32zM672 507.573h64v-416h-64v416z" />
<glyph unicode="&#xe922;" glyph-name="paperplane" d="M1009.376 950.613c-5.312 3.424-11.36 5.12-17.376 5.12-6.176 0-12.384-1.76-17.76-5.376l-960-640c-9.888-6.56-15.328-18.112-14.048-29.952 1.216-11.808 8.896-22.016 19.936-26.368l250.368-100.192 117.728-206.016c5.632-9.888 16.096-16 27.424-16.128 0.128 0 0.224 0 0.352 0 11.232 0 21.664 5.952 27.424 15.552l66.464 110.816 310.24-124.064c3.808-1.536 7.808-2.272 11.872-2.272 5.44 0 10.816 1.376 15.68 4.128 8.448 4.736 14.24 13.056 15.872 22.624l160 960c2.080 12.576-3.488 25.184-14.176 32.128zM100.352 290.869l741.6 494.432-539.2-577.184c-2.848 1.696-5.376 3.936-8.512 5.184l-193.888 77.568zM326.048 185.621c-0.064 0.128-0.16 0.192-0.224 0.32l606.176 648.8-516.768-805.184-89.184 156.064zM806.944 8.245l-273.312 109.312c-6.496 2.56-13.248 3.424-19.936 3.808l420.864 652.416-127.616-765.536z" />
<glyph unicode="&#xe923;" glyph-name="iconmonstr-connection-1" d="M341.333-68.267l128 384h-384l597.333 640-128-384h384l-597.333-640z" />
<glyph unicode="&#xe924;" glyph-name="iconmonstr-magnifier-1" d="M1016.405 64.853l-271.061 271.104c39.68 62.507 62.592 136.533 62.592 215.851 0.043 222.677-181.205 403.925-403.968 403.925s-403.968-181.248-403.968-403.968c0-222.763 181.205-404.011 403.968-404.011 75.435 0 145.963 20.779 206.464 56.875l272.896-272.896 133.077 133.12zM150.528 551.765c0 139.648 113.707 253.355 253.397 253.355 139.733 0 253.44-113.664 253.44-253.355 0-139.733-113.707-253.397-253.44-253.397-139.691 0-253.397 113.664-253.397 253.397z" />
<glyph unicode="&#xe925;" glyph-name="iconmonstr-credit-card-6" d="M938.667 785.066h-853.333c-47.104 0-85.333-38.229-85.333-85.333v-512c0-47.104 38.229-85.333 85.333-85.333h853.333c47.104 0 85.333 38.229 85.333 85.333v512c0 47.104-38.229 85.333-85.333 85.333zM938.667 209.066c0-11.776-9.557-21.333-21.333-21.333h-810.667c-11.776 0-21.333 9.557-21.333 21.333v277.333h853.333v-277.333zM938.667 614.4h-853.333v64c0 11.776 9.557 21.333 21.333 21.333h810.667c11.776 0 21.333-9.557 21.333-21.333v-64zM554.667 358.4h-384v42.667h384v-42.667zM426.667 273.066h-256v42.667h256v-42.667zM853.333 358.4h-128v42.667h128v-42.667z" />
<glyph unicode="&#xe926;" glyph-name="iconmonstr-location-1" d="M512 955.733c-179.115 0-341.333-145.195-341.333-324.352 0-179.115 148.011-392.96 341.333-699.648 193.323 306.688 341.333 520.533 341.333 699.648 0 179.157-162.176 324.352-341.333 324.352zM512 486.4c-70.699 0-128 57.301-128 128s57.301 128 128 128 128-57.301 128-128-57.301-128-128-128z" />
<glyph unicode="&#xe927;" glyph-name="iconmonstr-filter-3" d="M42.667 955.733l384-644.011v-251.989l170.667-128v379.989l384 644.011h-938.667zM831.104 870.4l-127.189-213.333h-383.829l-127.189 213.333h638.208z" />
<glyph unicode="&#xe928;" glyph-name="astronaut-wedding" d="M895.431 604.16h54.613v-9.102h-54.613v9.102zM895.431 572.302h54.613v9.102h-54.613v-9.102zM895.431 550.684h54.613v9.102h-54.613v-9.102zM983.040 622.364v-303.787c0-11.378-9.102-21.618-21.618-21.618h-78.507c-2.276 0-4.551 0-6.827 1.138v-233.244h-282.169v42.098c1.138 37.547 31.858 67.129 68.267 67.129 0 0 0 0 1.138 0v190.009l-77.369-31.858-4.551 11.378c-4.551-1.138-7.964-1.138-12.516-1.138-26.169 0-48.924 14.791-58.027 38.684l-2.276 6.827 47.787 19.342-5.689 12.516 112.64 46.649v13.653c0 21.618 5.689 42.098 17.067 59.164-2.276 1.138-3.413 2.276-5.689 3.413v0l-2.276 1.138c0 0-1.138 1.138-1.138 1.138-1.138 1.138-2.276 1.138-3.413 2.276-4.551 3.413-10.24 6.827-13.653 11.378 0 0-1.138 1.138-1.138 1.138-15.929 14.791-29.582 31.858-37.547 52.338 0 0 0 1.138 0 1.138-1.138 2.276-1.138 3.413-2.276 5.689 0 1.138-1.138 1.138-1.138 2.276-1.138 1.138-1.138 3.413-2.276 5.689 0 1.138-1.138 2.276-1.138 3.413-1.138 2.276-1.138 4.551-2.276 6.827 0 2.276-1.138 3.413-1.138 5.689 0 1.138 0 2.276-1.138 3.413 0 2.276-1.138 3.413-1.138 5.689 0 1.138 0 2.276 0 3.413 0 2.276 0 3.413-1.138 5.689 0 1.138 0 2.276 0 2.276 0 3.413 0 5.689 0 9.102 0 2.276 0 4.551 0 6.827 0 1.138 0 2.276 0 3.413s0 2.276 0 3.413c0 1.138 0 2.276 0 3.413s0 2.276 0 2.276 0 3.413 1.138 4.551c0 0 0 1.138 0 1.138 2.276 10.24 4.551 20.48 9.102 29.582 0 0 0 0 0 1.138 1.138 1.138 1.138 3.413 2.276 4.551 0 1.138 1.138 1.138 1.138 2.276 1.138 1.138 1.138 2.276 2.276 3.413 0 1.138 1.138 2.276 1.138 3.413s1.138 2.276 1.138 2.276 2.276 3.413 3.413 4.551c0 0 0 0 0 1.138 3.413 5.689 7.964 11.378 12.516 17.067l2.276 2.276c28.444 32.996 70.542 53.476 118.329 53.476 85.333 0 154.738-68.267 154.738-151.324 0-9.102-1.138-18.204-2.276-26.169h55.751c9.102-1.138 18.204-10.24 18.204-22.756zM772.551 674.702c0 28.444-7.964 43.236-13.653 50.062 0 0-1.138 1.138-1.138 2.276l-1.138 1.138c-6.827 6.827-34.133 27.307-102.4 27.307 0 0-4.551 0-11.378 0-2.276-2.276-3.413-4.551-5.689-6.827 0 0 0 0 0-1.138-1.138-1.138-2.276-3.413-3.413-4.551 0 0 0-1.138-1.138-1.138-1.138-1.138-1.138-2.276-2.276-3.413 0-1.138-1.138-1.138-1.138-2.276s-1.138-1.138-1.138-2.276c-1.138-2.276-2.276-5.689-3.413-7.964 0 0 0 0 0 0-1.138-1.138-1.138-3.413-2.276-4.551 0 0 0 0 0 0-1.138-1.138-1.138-3.413-2.276-4.551 0 0 0 0 0 0-2.276-6.827-4.551-13.653-5.689-21.618 0 0 0 0 0-1.138s0-2.276-1.138-4.551c0-1.138 0-1.138 0-2.276s0-2.276 0-3.413c0-1.138 0-2.276 0-3.413s0-2.276 0-2.276c0-2.276 0-4.551 0-6.827s0-5.689 0-7.964c0-1.138 0-1.138 0-2.276 0-2.276 0-3.413 0-5.689 0-1.138 0-2.276 0-3.413s0-3.413 1.138-4.551c0-1.138 0-2.276 0-3.413s1.138-3.413 1.138-4.551c0-1.138 0-2.276 1.138-3.413 0-2.276 1.138-3.413 1.138-5.689 1.138-2.276 1.138-3.413 2.276-5.689 0-1.138 0-1.138 1.138-2.276s1.138-3.413 2.276-4.551c0 0 0-1.138 1.138-1.138 1.138-2.276 1.138-3.413 2.276-5.689 0 0 0 0 0 0 7.964-15.929 18.204-29.582 31.858-40.96 0 0 1.138 0 1.138-1.138 1.138-1.138 2.276-2.276 3.413-3.413s1.138-1.138 2.276-2.276 2.276-2.276 3.413-2.276c1.138-1.138 2.276-2.276 3.413-2.276s1.138-1.138 2.276-1.138c55.751 10.24 97.849 60.302 97.849 117.191zM674.702 472.177l62.578 25.031c5.689 2.276 11.378 3.413 18.204 3.413 19.342 0 36.409-11.378 44.373-29.582 4.551-11.378 4.551-25.031 0-36.409s-13.653-20.48-26.169-25.031l-97.849-39.822v-196.836c3.413-1.138 6.827-1.138 9.102-3.413 7.964 3.413 15.929 4.551 23.893 4.551 0 0 1.138 0 1.138 0v113.778h15.929v-116.053c27.307-6.827 47.787-30.72 50.062-60.302h86.471v205.938c0 1.138 0 1.138 0 1.138v164.978c-1.138 22.756-9.102 43.236-22.756 61.44-23.893-15.929-53.476-25.031-84.196-25.031-22.756 0-44.373 4.551-63.716 13.653-10.24-15.929-15.929-34.133-15.929-53.476v-7.964zM861.298 534.755v27.307c-3.413-3.413-7.964-6.827-11.378-10.24 4.551-5.689 7.964-11.378 11.378-17.067zM724.764 157.013c-2.276 1.138-4.551 1.138-7.964 2.276-2.276 0-4.551 1.138-7.964 1.138 0 0-1.138 0-1.138 0-2.276 0-4.551 0-6.827 0-5.689-1.138-11.378-2.276-17.067-5.689-15.929-7.964-27.307-23.893-29.582-43.236h106.951c-2.276 21.618-17.067 38.684-36.409 45.511zM573.44 357.262l-14.791 36.409-34.133-13.653c9.102-14.791 23.893-23.893 42.098-23.893 2.276 0 4.551 1.138 6.827 1.138zM768 422.115c7.964 3.413 14.791 10.24 18.204 18.204s3.413 17.067 0 25.031c-5.689 12.516-17.067 20.48-30.72 20.48-4.551 0-9.102-1.138-12.516-2.276l-174.080-70.542 25.031-61.44 174.080 70.542zM638.293 96.711h-29.582v-17.067h29.582v17.067zM640.569 111.502c2.276 19.342 11.378 36.409 26.169 48.924-2.276 0-4.551 0-6.827 0-27.307 0-50.062-21.618-53.476-48.924h34.133zM862.436 96.711h-207.076v-17.067h207.076v17.067zM894.293 670.151c0 75.093-62.578 136.533-141.084 136.533-37.547 0-72.818-14.791-97.849-38.684 70.542 0 100.124-22.756 110.364-31.858l1.138-1.138c1.138-1.138 2.276-2.276 2.276-3.413 7.964-9.102 17.067-27.307 17.067-58.027 0-60.302-37.547-110.364-93.298-127.431 18.204-7.964 38.684-13.653 60.302-13.653 78.507 1.138 141.084 62.578 141.084 137.671zM968.249 622.364c0 3.413-3.413 6.827-6.827 6.827h-59.164c-5.689-19.342-14.791-36.409-27.307-51.2v-259.413c0-3.413 3.413-6.827 6.827-6.827h78.507c3.413 0 6.827 3.413 6.827 6.827v303.787zM128.569 593.92h-54.613v9.102h54.613v-9.102zM128.569 581.404h-54.613v-9.102h54.613v9.102zM128.569 559.786h-54.613v-9.102h54.613v9.102zM62.578 643.982h55.751c-1.138 9.102-2.276 17.067-2.276 26.169 0 83.058 69.404 151.324 154.738 151.324 47.787 0 89.884-20.48 118.329-53.476v0l2.276-2.276c4.551-5.689 7.964-11.378 12.516-17.067 0 0 0 0 0-1.138 1.138-1.138 2.276-3.413 3.413-4.551 0-1.138 1.138-2.276 1.138-2.276 0-1.138 1.138-2.276 1.138-3.413 1.138-1.138 1.138-2.276 2.276-3.413 0-1.138 1.138-1.138 1.138-2.276 1.138-1.138 1.138-3.413 2.276-4.551 0 0 0 0 0-1.138 3.413-9.102 6.827-19.342 9.102-29.582 0 0 0-1.138 0-1.138 0-1.138 0-3.413 1.138-4.551 0-1.138 0-2.276 0-2.276 0-1.138 0-2.276 0-3.413s0-2.276 0-3.413c0-1.138 0-2.276 0-3.413 0-2.276 0-4.551 0-6.827 0-3.413 0-5.689 0-9.102 0-1.138 0-2.276 0-2.276 0-2.276 0-3.413-1.138-5.689 0-1.138 0-2.276 0-3.413 0-2.276 0-3.413-1.138-5.689 0-1.138 0-2.276-1.138-3.413 0-2.276-1.138-3.413-1.138-5.689s-1.138-4.551-2.276-6.827c0-1.138-1.138-2.276-1.138-3.413 0-2.276-1.138-3.413-2.276-5.689 0-1.138-1.138-1.138-1.138-2.276-1.138-2.276-1.138-3.413-2.276-5.689 0 0 0-1.138 0-1.138-9.102-19.342-21.618-37.547-37.547-52.338 0 0-1.138-1.138-1.138-1.138-4.551-3.413-9.102-7.964-13.653-11.378-1.138-1.138-2.276-2.276-3.413-2.276 0 0-1.138-1.138-1.138-1.138l-2.276-1.138c-2.276-1.138-3.413-2.276-5.689-3.413 10.24-18.204 17.067-37.547 17.067-59.164v-12.516l112.64-46.649-5.689-12.516 47.787-19.342-2.276-6.827c-9.102-23.893-31.858-38.684-58.027-38.684-4.551 0-7.964 0-12.516 1.138l-4.551-11.378-78.507 31.858v-190.009c0 0 0 0 1.138 0 36.409 0 65.991-29.582 68.267-67.129v-42.098h-284.444v234.382c-2.276-1.138-4.551-1.138-6.827-1.138h-78.507c-11.378 0-21.618 9.102-21.618 21.618v302.649c0 12.516 9.102 21.618 21.618 21.618zM348.16 557.511c1.138 0 1.138 1.138 2.276 1.138 1.138 1.138 2.276 2.276 3.413 2.276 1.138 1.138 2.276 2.276 3.413 2.276s1.138 1.138 2.276 2.276c1.138 1.138 2.276 2.276 3.413 3.413 0 0 1.138 0 1.138 1.138 12.516 11.378 23.893 26.169 31.858 40.96 0 0 0 0 0 0 1.138 2.276 1.138 3.413 2.276 5.689 0 0 0 1.138 1.138 1.138 1.138 1.138 1.138 3.413 2.276 4.551 0 1.138 0 1.138 1.138 2.276 1.138 2.276 1.138 3.413 2.276 5.689s1.138 3.413 1.138 5.689c0 1.138 0 2.276 1.138 3.413 0 1.138 1.138 3.413 1.138 4.551s0 2.276 0 3.413c0 1.138 0 3.413 1.138 4.551 0 1.138 0 2.276 0 3.413 0 2.276 0 3.413 0 5.689 0 1.138 0 1.138 0 2.276 0 2.276 0 5.689 0 7.964s0 4.551 0 6.827c0 1.138 0 2.276 0 2.276 0 1.138 0 2.276 0 3.413s0 2.276 0 3.413c0 1.138 0 1.138 0 2.276s0 2.276-1.138 4.551c0 0 0 0 0 1.138-1.138 6.827-3.413 14.791-5.689 21.618 0 0 0 0 0 0-1.138 2.276-1.138 3.413-2.276 4.551 0 0 0 0 0 0-1.138 1.138-1.138 3.413-2.276 4.551 0 0 0 0 0 0-1.138 2.276-2.276 5.689-3.413 7.964 0 1.138-1.138 1.138-1.138 2.276s-1.138 1.138-1.138 2.276-1.138 2.276-2.276 3.413c0 0 0 1.138-1.138 1.138-1.138 1.138-2.276 3.413-3.413 4.551 0 0 0 0 0 1.138-1.138 2.276-3.413 4.551-5.689 6.827-6.827 0-11.378 0-11.378 0-68.267 0-95.573-21.618-102.4-27.307l-1.138-1.138c-1.138-1.138-1.138-1.138-1.138-2.276-4.551-5.689-13.653-20.48-13.653-50.062 1.138-56.889 43.236-106.951 97.849-117.191zM349.298 479.004c0 19.342-5.689 37.547-15.929 53.476-19.342-9.102-40.96-13.653-63.716-13.653-30.72 0-60.302 9.102-84.196 25.031-13.653-17.067-22.756-38.684-22.756-61.44v-163.84c0-1.138 0-1.138 0-1.138v-205.938h86.471c2.276 29.582 23.893 53.476 50.062 60.302v116.053h15.929v-113.778c0 0 1.138 0 1.138 0 7.964 0 17.067-1.138 23.893-4.551 3.413 1.138 5.689 2.276 9.102 3.413v196.836l-97.849 39.822c-11.378 4.551-20.48 13.653-26.169 25.031-4.551 11.378-4.551 25.031 0 36.409 6.827 18.204 25.031 29.582 44.373 29.582 5.689 0 12.516-1.138 18.204-3.413l62.578-25.031v6.827zM174.080 551.822c-4.551 3.413-7.964 6.827-11.378 10.24v-27.307c3.413 5.689 6.827 11.378 11.378 17.067zM262.827 111.502h106.951c-2.276 19.342-13.653 35.271-29.582 43.236-5.689 2.276-11.378 4.551-17.067 5.689-2.276 0-4.551 0-6.827 0 0 0-1.138 0-1.138 0-2.276 0-5.689 0-7.964-1.138-2.276 0-5.689-1.138-7.964-2.276-19.342-6.827-34.133-23.893-36.409-45.511zM457.387 356.124c17.067 0 32.996 9.102 42.098 23.893l-34.133 13.653-14.791-36.409c2.276 0 4.551-1.138 6.827-1.138zM430.080 351.573l25.031 61.44-174.080 70.542c-4.551 1.138-7.964 2.276-12.516 2.276-13.653 0-26.169-7.964-30.72-20.48-3.413-7.964-3.413-17.067 0-25.031s10.24-14.791 18.204-18.204l174.080-70.542zM385.707 79.644h29.582v18.204h-29.582v-18.204zM417.564 111.502c-3.413 27.307-26.169 48.924-53.476 48.924-2.276 0-4.551 0-6.827 0 14.791-11.378 23.893-28.444 26.169-48.924h34.133zM161.564 79.644h207.076v18.204h-207.076v-18.204zM269.653 533.617c21.618 0 42.098 4.551 60.302 13.653-54.613 17.067-93.298 68.267-93.298 127.431 0 31.858 9.102 48.924 17.067 58.027 0 0 1.138 1.138 2.276 3.413l1.138 1.138c10.24 9.102 40.96 31.858 110.364 31.858-25.031 23.893-60.302 38.684-97.849 38.684-77.369 0-141.084-61.44-141.084-136.533s63.716-137.671 141.084-137.671zM55.751 318.577c0-3.413 3.413-6.827 6.827-6.827h78.507c3.413 0 6.827 3.413 6.827 6.827v259.413c-12.516 14.791-21.618 32.996-27.307 51.2h-58.027c-3.413 0-6.827-3.413-6.827-6.827v-303.787z" />
<glyph unicode="&#xe929;" glyph-name="add-service-details" d="M510.862 552.96v0c78.507 0 142.222 64.853 142.222 143.36 0 34.133-9.102 52.338-17.067 62.578-22.756 35.271-98.987 38.684-121.742 38.684-2.276 0-3.413 0-3.413 0-77.369 0-110.364-23.893-120.604-34.133v-1.138c-2.276-2.276-2.276-3.413-2.276-3.413-7.964-10.24-18.204-28.444-18.204-62.578 0-78.507 62.578-143.36 141.084-143.36zM394.809 753.209c0 0 1.138 1.138 2.276 2.276l1.138 1.138c7.964 6.827 38.684 30.72 113.778 30.72 0 0 1.138 0 3.413 0 14.791 0 93.298-1.138 112.64-34.133v0c5.689-6.827 14.791-23.893 14.791-55.751 0-73.956-59.164-133.12-131.982-133.12v0c-72.818 0-131.982 60.302-131.982 133.12 1.138 31.858 10.24 47.787 15.929 55.751zM757.76 414.151v112.64l-44.373-9.102c-1.138 3.413-2.276 5.689-3.413 9.102v146.773c0 12.516-10.24 23.893-23.893 23.893h-4.551c-2.276 88.747-77.369 160.427-169.529 160.427s-167.253-71.68-169.529-161.564h-5.689c-12.516 0-23.893-10.24-23.893-23.893v-147.911c-1.138-2.276-2.276-4.551-3.413-7.964l-44.373 9.102v-112.64c-10.24-4.551-15.929-14.791-14.791-26.169l6.827-56.889c1.138-6.827 3.413-11.378 7.964-15.929v-86.471l104.676-20.48v-179.769h281.031v45.511c0 1.138 0 1.138 0 2.276v133.12l105.813 20.48v86.471c4.551 3.413 7.964 9.102 7.964 15.929l6.827 56.889c2.276 11.378-3.413 21.618-13.653 26.169zM686.080 680.391c4.551 0 7.964-3.413 7.964-7.964v-119.467c-11.378 15.929-26.169 30.72-43.236 43.236 17.067 23.893 28.444 52.338 30.72 83.058h4.551zM512 841.955c85.333 0 153.6-67.129 153.6-150.187s-69.404-149.049-153.6-149.049c-85.333 0-153.6 67.129-153.6 150.187s68.267 149.049 153.6 149.049zM328.818 673.564c0 4.551 3.413 7.964 7.964 7.964h5.689c2.276-30.72 13.653-59.164 30.72-84.196-17.067-12.516-31.858-27.307-43.236-44.373v120.604zM382.293 584.817c30.72-35.271 77.369-58.027 129.707-58.027s97.849 22.756 129.707 59.164c26.169-19.342 45.511-43.236 56.889-70.542l-186.596-37.547-186.596 36.409c11.378 27.307 30.72 52.338 56.889 70.542zM271.929 333.369l-5.689 51.2-1.138 5.689c0 2.276 0 3.413 1.138 4.551 1.138 3.413 4.551 6.827 9.102 6.827 0 0 2.276 0 4.551 1.138 2.276 0 3.413 0 3.413 0 1.138 0 3.413 0 4.551 0 20.48 0 37.547-14.791 39.822-35.271 2.276-19.342-10.24-37.547-28.444-42.098v0c-2.276 0-9.102-1.138-14.791-2.276-1.138 0-2.276 0-3.413 0-4.551 2.276-7.964 5.689-9.102 10.24zM279.893 309.475c1.138 0 1.138 0 2.276 0s2.276 0 3.413 0c12.516 1.138 15.929 2.276 17.067 2.276 25.031 6.827 42.098 31.858 38.684 58.027-3.413 27.307-26.169 47.787-53.476 47.787-2.276 0-4.551 0-5.689 0 0 0-1.138 0-2.276 0v92.16l25.031-4.551c0 0 0 0 0 0l14.791-3.413c0 0 0 0 0 0l184.32-36.409v-268.516l-225.28 44.373v68.267zM504.036 44.373h-117.191v18.204h117.191v-18.204zM386.844 79.644c3.413 30.72 28.444 53.476 58.027 53.476s54.613-23.893 58.027-53.476h-116.053zM446.009 147.911c-23.893 0-45.511-11.378-59.164-29.582v87.609l118.329-22.756v-65.991c-13.653 18.204-35.271 30.72-59.164 30.72zM637.156 44.373h-117.191v18.204h117.191v-18.204zM519.964 79.644c3.413 30.72 28.444 53.476 58.027 53.476s54.613-23.893 58.027-53.476h-116.053zM637.156 118.329c-13.653 18.204-35.271 29.582-59.164 29.582-25.031 0-46.649-12.516-60.302-31.858v65.991l118.329 22.756v-86.471zM744.107 241.209l-225.28-44.373v268.516l184.32 36.409c0 0 0 0 0 0l14.791 3.413c0 0 0 0 0 0l25.031 4.551v-92.16c-1.138 0-2.276 0-2.276 0-2.276 0-4.551 0-5.689 0-27.307 0-50.062-20.48-53.476-47.787-3.413-26.169 13.653-51.2 38.684-58.027 1.138 0 4.551-1.138 17.067-2.276 1.138 0 2.276 0 3.413 0s1.138 0 2.276 0v-68.267zM757.76 384.569l-5.689-51.2c0-4.551-4.551-7.964-7.964-9.102-1.138 0-2.276 0-3.413 0-5.689 1.138-12.516 2.276-14.791 2.276v0c-19.342 5.689-30.72 22.756-28.444 42.098 2.276 20.48 19.342 35.271 39.822 35.271 1.138 0 3.413 0 4.551 0 0 0 2.276 0 3.413 0 2.276 0 4.551-1.138 4.551-1.138 4.551 0 7.964-3.413 9.102-6.827 1.138-1.138 1.138-3.413 1.138-4.551l-2.276-6.827z" />
</font>
</defs>
</svg>
